<?xml version="1.0" standalone="no"?>
<!DOCTYPE svg PUBLIC "-//W3C//DTD SVG 1.1//EN" "http://www.w3.org/Graphics/SVG/1.1/DTD/svg11.dtd">
<svg xmlns="http://www.w3.org/2000/svg">
<defs >
<font id="Alkatra" horiz-adv-x="516" ><font-face
    font-family="Alkatra SemiBold"
    units-per-em="1000"
    panose-1="3 8 9 2 4 3 2 2 2 0"
    ascent="1095"
    descent="-589"
    alphabetic="0" />
<glyph unicode=" " horiz-adv-x="215" />
<glyph unicode="!" horiz-adv-x="231" d="M93 628Q95 654 107 669T138 690T179 696Q211 696 228 684T245 646Q245 641 245 635T242 621L199 429Q183 356 172 310T151 238T129 204T96 194Q89 194 82 199T76 215L93 628ZM92 -20Q59 -20 36 2T12 60Q12 103 39 127T103
151Q137 151 160 131T183 72Q183 32 156 6T92 -20Z" />
<glyph unicode="&quot;" horiz-adv-x="349" d="M85 927Q86 937 90 940T101 944H164Q190 944 205 933T206 884L138 702Q126 668 117 657T90 646Q78 646 71 654T64 676L85 927ZM245 671Q246 681 250 684T261 688H324Q350 688 365 677T366 628L298 446Q286 412 277
401T250 390Q238 390 231 398T224 420L245 671Z" />
<glyph unicode="#" horiz-adv-x="615" d="M149 -170Q134 -170 123 -153T105 -94Q104 -84 103 -70T101 -42Q101 -15 103 15T112 88L209 671Q211 686 222 691T242 696Q254 696 265 688T285 656T293 589Q293 562 290 526T279 441L188 -127Q185 -148 175 -159T149
-170ZM26 110Q13 110 9 115T5 133Q5 143 12 157T34 182T76 193L518 199Q548 200 558 200T572 201Q584 201 587 197T590 184Q590 171 584 156T562 129T518 117L26 110ZM379 -170Q366 -170 357 -158T342 -128T334 -89T332 -51Q331 -24 333 9T343 88L439 671Q441 686
452 691T472 696Q484 696 495 688T515 656T523 589Q523 562 520 526T509 441L418 -127Q415 -148 405 -159T379 -170ZM52 325Q40 325 36 331T32 348Q32 358 39 372T62 397T104 408L545 414Q575 415 585 415T599 416Q611 416 614 412T617 399Q617 386 611 371T589
344T545 332L52 325Z" />
<glyph unicode="$" horiz-adv-x="580" d="M386 684L260 -77Q258 -90 250 -99T227 -108Q207 -108 196 -90T189 -43L324 771Q327 792 336 797T355 802Q368 802 379 792T396 768T402 743Q401 724 395 710T386 684ZM29 88Q29 127 37 144T60 162Q71 162 88 149T130
120T187 90T257 77Q292 77 316 88T353 117T366 159Q366 182 358 199T332 231T290 264L217 312Q183 334 152 359T100 419T79 500Q79 562 114 606T210 673T347 696Q414 696 451 688T502 665T517 627Q517 599 508 578T486 557Q477 557 465 565T432 581Q412 590 385
597T322 605Q296 605 275 595T241 567T229 525Q229 506 237 491T262 462T303 437L369 403Q413 381 448 358T505 299T527 208Q527 137 491 88T390 13T238 -13Q144 -13 87 13T29 88Z" />
<glyph unicode="%" horiz-adv-x="573" d="M32 -18Q17 -18 8 -4T0 26Q1 40 16 63T58 119L517 687Q523 696 531 698T546 699Q562 699 569 687T577 659Q577 645 569 630T549 602L68 6Q59 -5 51 -11T32 -18ZM166 413Q106 413 72 451T38 545Q38 589 56 625T109 683T189
705Q253 705 284 667T316 574Q316 529 297 493T245 435T166 413ZM173 495Q199 495 216 514T234 565Q234 591 223 607T186 625Q157 627 139 607T121 555Q121 529 134 512T173 495ZM401 -21Q341 -21 307 17T273 111Q273 155 292 191T345 249T424 271Q489 271 520
233T552 140Q552 95 533 59T480 1T401 -21ZM408 61Q435 61 452 80T469 131Q469 157 458 173T421 191Q392 193 374 173T356 121Q356 95 369 78T408 61Z" />
<glyph unicode="&amp;" horiz-adv-x="682" d="M542 -15Q529 -15 514 -9T476 15T419 67T334 157L187 318Q153 356 130 385T94 445T81 513Q81 598 139 647T299 696Q405 696 453 655T502 547Q502 507 483 471T434 404T368 354T301 324L269 380Q311 410 338 449T366
534Q366 572 347 594T294 616Q262 616 238 594T213 528Q213 495 236 457T292 384L486 177Q527 134 568 109T657 64Q668 60 675 56T682 43Q682 35 670 25T636 6T590 -9T542 -15ZM221 372L248 324Q218 317 196 296T161 246T148 185Q148 132 181 103T262 74Q315 74
358 92T432 138T475 190Q493 227 496 258T500 315T506 359Q511 373 532 383T578 399T620 405Q631 405 635 399T640 384Q640 302 608 230T520 103T392 18T239 -13Q125 -13 63 31T1 165Q1 212 23 248T78 311T150 352T221 372Z" />
<glyph unicode="&apos;" horiz-adv-x="189" d="M85 672Q86 682 90 685T101 689H164Q190 689 205 678T206 629L138 447Q126 413 117 402T90 391Q78 391 71 399T64 421L85 672Z" />
<glyph unicode="(" horiz-adv-x="349" d="M318 689Q245 667 189 618T93 502T34 357T14 199Q14 115 35 47T92 -69T170 -144T253 -170Q271 -170 280 -162T289 -144Q289 -137 286 -132T273 -122Q251 -111 227 -91T183 -34T149 61T136 206Q136 263 146 327T181 453T250
564T364 644Q375 649 380 653T385 668Q385 679 378 687T357 696Q351 696 344 695T318 689Z" />
<glyph unicode=")" horiz-adv-x="349" d="M36 -164Q109 -142 165 -93T261 23T320 168T340 326Q340 410 319 478T262 594T184 669T101 695Q83 695 74 688T65 669Q65 662 68 657T81 647Q103 637 127 616T171 559T205 464T218 319Q218 262 208 198T173 72T104 -39T-10
-119Q-20 -123 -25 -128T-31 -143Q-31 -154 -24 -162T-3 -171Q3 -171 10 -170T36 -164Z" />
<glyph unicode="*" horiz-adv-x="407" d="M29 540Q29 565 46 582T86 599Q94 599 102 596T118 589L169 558Q180 552 186 557T187 574L166 628Q163 636 161 642T159 656Q159 683 177 698T220 713Q240 713 255 701T270 663Q270 653 268 647T264 633L239 574Q234 562
240 557T257 558L305 585Q313 590 322 594T342 598Q362 598 377 585T392 547Q392 523 375 506T335 488Q330 488 327 489T319 491L276 501Q263 503 259 496T264 480L319 434Q335 420 335 395Q335 373 319 356T278 338Q260 338 246 351T227 385L218 445Q217 459 209
460T197 447L179 380Q175 362 160 350T124 337Q103 337 88 351T73 390Q73 408 81 420T100 439L156 480Q167 489 164 497T148 502L131 496Q106 490 95 489T78 488Q58 488 44 503T29 540Z" />
<glyph unicode="+" horiz-adv-x="551" d="M491 325Q503 325 507 321T512 308Q512 295 505 279T482 251T437 238L68 230Q56 230 52 236T47 252Q47 262 55 276T78 303T118 315L491 325ZM341 429L307 108Q305 84 292 69T265 47T240 40Q230 40 225 44T219 59Q219 66
221 83T224 107L255 433Q258 461 270 476T298 498T328 505Q336 505 341 502T346 487Q346 478 345 465T341 429Z" />
<glyph unicode="," horiz-adv-x="219" d="M-23 -142Q-23 -135 -19 -132T-9 -127Q34 -108 53 -82T72 -22Q72 -11 68 -2T45 35L110 -15Q95 -21 79 -21Q51 -21 26 -1T1 56Q1 95 27 118T89 141Q129 141 151 112T174 40Q174 -12 156 -51T111 -117T54 -156T1 -170Q-10
-170 -16 -160T-23 -142Z" />
<glyph unicode="-" horiz-adv-x="367" d="M249 293Q288 295 295 295T303 295Q315 295 320 290T325 275Q325 262 319 246T297 219T252 206L70 199Q69 199 67 199T64 199Q54 199 50 205T45 224Q45 243 62 264T117 287L249 293Z" />
<glyph unicode="." horiz-adv-x="218" d="M85 -20Q53 -20 29 2T5 61Q5 103 32 127T97 151Q130 151 153 131T176 72Q176 32 149 6T85 -20Z" />
<glyph unicode="/" horiz-adv-x="275" d="M281 638Q281 619 279 605T273 579L85 -122Q78 -147 67 -158T41 -170Q25 -170 13 -149T0 -104Q0 -91 2 -74T10 -37L194 665Q199 685 208 690T227 696Q247 696 264 676T281 638Z" />
<glyph unicode="0" horiz-adv-x="580" d="M261 -16Q148 -16 91 58T33 283Q33 376 55 451T119 582T218 666T343 696Q462 696 515 623T569 398Q569 305 547 229T483 98T386 14T261 -16ZM325 613Q290 613 265 589T224 522T200 421T192 299Q192 182 212 125T280 68Q319
68 348 108T394 218T410 378Q410 497 391 555T325 613Z" />
<glyph unicode="1" horiz-adv-x="580" d="M10 5Q10 23 27 42T74 65L272 87L209 27L266 545L138 514Q117 509 99 503T72 497Q62 497 56 501T50 517Q50 535 72 556T140 599L321 681Q330 685 344 690T371 696Q403 696 412 671T415 584L387 319Q379 240 374 175T374
53L310 91L503 121Q516 123 523 125T536 128Q553 128 553 108Q553 97 549 79T536 42T514 12T484 0H234Q182 0 137 -3T63 -9T26 -12Q10 -12 10 5Z" />
<glyph unicode="2" horiz-adv-x="580" d="M99 146L217 258Q281 319 315 360T363 436T376 507Q376 555 351 582T285 609Q250 609 217 593T160 561Q141 548 126 539T98 530Q87 530 79 541T66 569T62 602Q62 630 90 651T169 684T288 696Q359 696 416 676T507 617T541
519Q541 468 521 425T467 345T396 275T321 213L129 56V81L478 131Q497 134 512 136T537 138Q557 138 557 118Q557 106 552 87T538 48T514 14T482 0H351Q329 0 296 -1T226 -3T155 -6T97 -9T64 -10Q50 -10 43 -1T34 22T31 44Q31 64 45 86T99 146Z" />
<glyph unicode="3" horiz-adv-x="580" d="M375 367L386 398Q428 390 465 367T524 308T547 224Q547 152 507 98T397 14T238 -16Q157 -16 108 0T36 43T14 102Q14 128 19 145T38 163Q49 163 70 149T121 117T183 85T250 71Q290 71 321 91T370 145T388 223Q388 274
364 304T299 346L379 357Q355 344 326 330T269 307T219 297Q203 297 188 312T164 350T154 392Q154 413 163 423T188 433Q206 433 232 429T288 420T342 410T380 405L324 390Q353 411 367 449T381 519Q381 569 358 589T297 609Q264 609 229 593T168 561Q147 549 133
540T110 530Q100 530 92 540T78 567T73 599Q73 629 108 650T200 684T320 696Q415 696 474 656T533 544Q533 497 510 464T451 407T375 367Z" />
<glyph unicode="4" horiz-adv-x="580" d="M-1 194Q-1 214 4 230T29 271T89 343L324 627Q347 655 362 669T393 689T429 695H500Q518 695 525 686T533 649Q533 625 531 601T526 545T517 466L467 -8H381Q372 -8 362 -5T345 9T337 36Q337 67 339 104T346 175T352 234L395
640L428 611L96 201L56 248H389Q432 248 468 251T530 258T563 262Q575 262 581 256T587 239Q587 224 567 205T515 173T446 160L27 158Q12 158 6 167T-1 194Z" />
<glyph unicode="5" horiz-adv-x="580" d="M15 100Q15 127 20 144T39 161Q49 161 69 148T116 116T175 85T242 71Q287 71 317 92T364 153T380 245Q380 301 354 328T281 356Q248 356 214 346T153 325T113 314Q90 314 90 361Q90 366 94 395T103 463L133 668Q135 680
148 680H302Q376 680 422 684T492 692T527 696Q538 696 544 693T550 674Q550 660 545 641T531 604T512 573T488 561Q473 561 437 565T353 576L163 600L230 646L191 376L150 392Q190 418 242 430T337 443Q394 443 441 424T517 363T546 257Q546 181 507 119T396 21T222
-16Q146 -16 101 0T35 42T15 100Z" />
<glyph unicode="6" horiz-adv-x="580" d="M280 -16Q231 -16 187 -3T109 41T54 122T34 245Q34 346 60 428T135 571T249 663T395 696Q457 696 487 688T528 664T539 626Q539 600 530 580T508 560Q500 560 489 566T460 580Q446 588 416 598T350 609Q292 609 256 567T204
447T188 263Q188 168 216 118T294 67Q344 67 371 114T399 235Q399 268 390 295T360 338T304 355Q287 355 248 346T170 310L173 389Q208 412 252 427T349 442Q409 442 457 421T534 357T562 247Q562 188 540 140T478 57T388 3T280 -16Z" />
<glyph unicode="7" horiz-adv-x="580" d="M49 569Q49 594 55 619T73 662T99 680H598Q608 680 613 675T618 660Q617 637 609 619T588 586T555 550Q478 468 432 396T365 258T344 129Q344 98 353 74T362 37Q362 24 342 15T294 -2T241 -12T208 -16Q193 -16 185 3T177
81Q177 151 202 223T272 366T376 501T502 621L556 602L156 551Q126 547 109 544T76 541Q61 541 55 549T49 569Z" />
<glyph unicode="8" horiz-adv-x="580" d="M26 150Q26 187 44 222T95 287T168 335T256 359L286 317Q257 305 232 285T191 237T176 175Q176 118 206 93T283 67Q330 67 359 94T388 166Q388 191 378 208T345 242T290 280L246 309Q222 325 194 343T141 383T100 434T83
500Q82 559 115 603T206 671T335 696Q436 696 497 658T558 549Q558 513 540 483T490 428T423 389T349 368L309 409Q333 420 356 439T393 482T408 535Q408 567 389 589T330 612Q290 612 264 589T238 527Q238 505 247 488T273 458T306 435L412 374Q432 363 455 348T501
311T537 261T551 197Q551 137 515 89T415 13T265 -15Q157 -15 92 26T26 150Z" />
<glyph unicode="9" horiz-adv-x="580" d="M200 -16Q141 -16 108 -8T62 16T49 54Q49 85 60 104T82 123Q90 123 102 116T130 100Q145 93 175 82T239 71Q294 71 331 113T387 233T406 417Q406 512 378 562T300 613Q253 613 224 568T195 451Q195 398 216 362T290 325Q311
325 349 334T424 367L423 291Q389 269 344 254T247 238Q191 238 144 259T68 322T39 430Q39 490 60 539T119 623T207 677T314 696Q363 696 408 681T489 633T544 545T565 408Q565 322 540 246T468 110T354 18T200 -16Z" />
<glyph unicode=":" horiz-adv-x="232" d="M121 257Q89 257 65 279T41 338Q41 380 68 404T133 428Q166 428 189 408T212 349Q212 309 185 283T121 257ZM92 -20Q60 -20 36 2T12 61Q12 103 39 127T104 151Q137 151 160 131T183 72Q183 32 156 6T92 -20Z" />
<glyph unicode=";" horiz-adv-x="235" d="M118 257Q86 257 62 279T38 338Q38 380 65 404T130 428Q163 428 186 408T209 349Q209 309 182 283T118 257ZM-19 -142Q-19 -135 -15 -132T-5 -127Q38 -108 57 -82T76 -22Q76 -11 72 -2T49 35L114 -15Q99 -21 83 -21Q55
-21 30 -1T5 56Q5 95 31 118T93 141Q133 141 155 112T178 40Q178 -12 160 -51T115 -117T58 -156T5 -170Q-6 -170 -12 -160T-19 -142Z" />
<glyph unicode="&lt;" horiz-adv-x="658" d="M568 480Q568 460 555 439T510 403L211 265V302L538 143Q547 139 553 135T560 122Q560 103 541 86T499 69Q481 69 465 77L164 233Q140 246 140 270Q140 288 157 308T231 358L510 503Q532 515 550 507T568 480Z" />
<glyph unicode="=" horiz-adv-x="550" d="M493 240Q505 240 508 236T511 223Q511 210 505 194T483 166T439 154L65 148Q53 148 50 154T47 170Q47 180 54 194T76 220T115 232L493 240ZM497 409Q509 409 512 405T515 392Q515 379 509 363T487 336T443 323L68 317Q56
317 53 323T50 339Q50 349 57 363T79 389T118 401L497 409Z" />
<glyph unicode="&gt;" horiz-adv-x="550" d="M84 77Q84 98 97 118T142 154L440 292V255L113 414Q104 418 98 422T91 435Q91 454 110 471T152 488Q170 488 186 480L487 324Q511 311 511 287Q511 269 495 249T420 199L141 54Q119 43 102 50T84 77Z" />
<glyph unicode="?" horiz-adv-x="410" d="M431 556Q431 508 407 470T345 404T263 355T184 320L270 390Q246 311 231 269T200 210T157 194Q139 194 132 201T126 223L132 330Q134 353 142 363T176 390Q232 427 256 460T281 540Q281 578 266 596T217 615Q182 615
157 601T114 572T84 557Q71 557 63 577T54 618Q54 649 98 672T225 696Q324 696 377 656T431 556ZM163 -20Q131 -20 107 2T83 60Q83 103 110 127T175 151Q208 151 231 131T254 72Q254 32 227 6T163 -20Z" />
<glyph unicode="@" horiz-adv-x="813" d="M309 130Q259 130 233 166T207 275Q207 353 239 415T325 514T444 551Q485 551 517 540T568 521L541 421Q518 439 489 453T434 475T399 483Q380 483 365 458T340 392T330 310Q330 268 333 243T347 217Q356 217 380 238T437
315T507 473H529L528 399Q482 261 427 196T309 130ZM37 263Q37 350 63 419T135 541T238 627T356 679T474 696Q570 696 643 664T758 572T799 425Q799 362 778 308T720 214T638 152T546 130Q511 130 495 149T478 191Q478 211 483 239T494 314L502 376L490 398L510
523Q520 524 538 526T575 530T609 533T628 535Q640 535 640 525Q640 521 639 515T635 499Q626 471 613 428T593 321L588 271Q585 239 586 228T603 217Q620 217 643 239T684 305T702 414Q702 485 672 532T588 604T465 628Q400 628 340 603T234 532T160 420T133 274Q133
163 198 109T370 54Q449 54 493 65T557 81Q562 82 566 82T574 83Q585 83 594 79T603 68Q603 56 581 42T522 15T444 -6T359 -15Q261 -15 188 17T76 112T37 263Z" />
<glyph unicode="A" horiz-adv-x="666" d="M12 -14Q-15 -14 -15 3Q-15 11 -7 29L289 625Q298 644 322 660T378 685T445 695Q457 695 465 690T477 665Q494 550 519 439T575 217Q589 170 599 141T619 97Q630 82 638 73T647 54Q647 43 632 32T595 10T551 -6T515 -12Q491
-12 468 27T422 170L335 587L373 599L181 189Q169 161 164 142T157 108T153 72Q151 53 133 38T90 11T43 -7T12 -14ZM142 190V275H514V190H142Z" />
<glyph unicode="B" horiz-adv-x="596" d="M75 -8Q57 -8 50 8T43 51Q43 71 46 96L110 678Q148 683 191 686T288 690Q387 690 445 671T528 618T553 536Q553 480 520 437T432 365L401 348Q374 335 353 327T316 318Q291 318 271 332T250 361Q250 368 254 371T267 377Q300
386 331 404T384 451T405 523Q405 573 364 592T248 611L201 159Q200 149 200 140T199 120Q199 109 199 101T201 82Q302 82 358 116T414 227Q414 270 392 300T342 346L414 384Q460 372 496 348T552 289T573 215Q573 151 542 103T445 28T278 0Q258 0 228 -1T167 -4T111
-7T75 -8Z" />
<glyph unicode="C" horiz-adv-x="616" d="M331 -16Q247 -16 181 17T77 118T39 283Q39 373 69 448T153 579T282 665T445 696Q531 696 576 677T621 607Q621 580 610 560T586 540Q577 540 561 549T530 567Q506 582 478 597T408 613Q348 613 302 575T229 466T202 301Q202
222 222 170T277 93T356 68Q394 68 424 84T478 121T521 157T557 173Q570 173 578 165T586 140Q586 98 552 62T459 5T331 -16Z" />
<glyph unicode="D" horiz-adv-x="689" d="M88 -8Q70 -8 61 12T51 59Q51 98 60 186L110 680Q164 685 224 687T330 690Q492 690 581 614T671 400Q671 284 621 194T476 52T242 0Q202 0 161 -4T88 -8ZM208 82Q304 82 371 121T473 229T508 388Q508 493 454 552T279
611H254L209 166Q208 149 208 127T208 82Z" />
<glyph unicode="E" horiz-adv-x="513" d="M88 -12Q70 -12 61 10T51 59Q51 98 60 186L110 680H278Q347 680 390 683T458 688T494 691Q505 691 513 688T522 669Q522 651 514 627T492 584T463 565Q453 565 427 570T372 579L254 598L209 172Q207 149 207 127T210 84L408
127Q426 131 442 135T465 139Q480 139 480 116Q480 96 471 69T446 21T408 0H368Q256 0 185 -6T88 -12ZM163 308L176 399H224Q267 399 303 402T364 408T396 411Q408 411 413 404T418 388Q418 373 400 355T352 324T285 310L163 308Z" />
<glyph unicode="F" horiz-adv-x="492" d="M101 -12Q81 -12 70 3T55 38T50 74Q50 94 52 118T59 186L110 680H259Q330 680 377 683T452 688T491 691Q502 691 509 688T517 669Q517 651 509 627T487 584T458 565Q452 565 438 567T406 572T374 578L253 598L197 -12H101ZM172
289L185 379H233Q276 379 313 382T375 388T407 391Q419 391 424 385T430 368Q430 353 412 335T363 305T293 291L172 289Z" />
<glyph unicode="G" horiz-adv-x="681" d="M371 -16Q271 -16 197 17T81 118T39 283Q39 373 69 448T153 579T282 665T447 696Q530 696 574 677T618 607Q618 580 608 560T583 540Q574 540 558 549T528 567Q504 582 476 597T408 613Q347 613 301 575T228 467T202 301Q202
212 234 162T327 92T474 71L511 404H603Q629 404 638 395T647 358Q647 352 647 346T646 334L615 76Q611 47 604 25T576 0Q522 -8 469 -12T371 -16Z" />
<glyph unicode="H" horiz-adv-x="687" d="M168 305V400H539V305H168ZM105 -8Q85 -8 73 6T56 43T51 87Q51 123 55 156T64 234L112 696H198Q230 696 242 679T255 635Q255 611 253 591T248 542T239 466L189 -8H105ZM514 -8Q494 -8 482 6T465 43T460 87Q460 123 464
156T473 234L521 696H607Q639 696 651 679T664 635Q664 611 662 591T657 542T648 466L598 -8H514Z" />
<glyph unicode="I" horiz-adv-x="279" d="M105 -8Q85 -8 73 6T56 43T51 87Q51 123 55 156T64 234L112 696H198Q230 696 242 679T255 635Q255 611 253 591T248 542T239 466L189 -8H105Z" />
<glyph unicode="J" horiz-adv-x="291" d="M-19 -170Q-73 -170 -102 -142T-131 -64Q-131 -49 -126 -45T-116 -40Q-111 -40 -106 -42T-87 -50Q-63 -60 -40 -69T1 -78Q16 -78 24 -66T38 -19T51 78L119 696H207Q241 696 252 676T263 629Q263 611 258 574T245 466L209
134Q200 49 176 -9T118 -103T49 -154T-19 -170Z" />
<glyph unicode="K" horiz-adv-x="645" d="M476 -7Q455 -7 429 18T374 87T318 183T263 291Q258 302 253 314T247 340Q247 354 256 379T294 444T376 538L450 615Q485 651 521 673T594 695Q625 695 641 681T657 637Q657 614 652 591T635 553T609 538Q597 538 583
541T553 545Q543 545 529 539T497 518T451 473L326 344L348 433Q383 349 424 282T503 171T557 112Q580 93 593 86T613 75T619 64Q619 55 605 43T568 20T522 1T476 -7ZM105 -8Q85 -8 73 6T56 43T51 87Q51 123 55 156T64 234L112 696H198Q230 696 242 679T255 635Q255
611 253 591T248 542T239 466L189 -8H105Z" />
<glyph unicode="L" horiz-adv-x="485" d="M87 -12Q69 -12 60 10T50 59Q50 98 59 186L112 695L206 696Q244 696 252 675T253 590L207 170Q205 149 205 127T208 84L406 130Q422 133 436 136T456 140Q471 140 471 117Q471 97 462 70T437 21T399 0H359Q284 0 230 -3T140
-9T87 -12Z" />
<glyph unicode="M" horiz-adv-x="810" d="M71 -12Q53 -12 47 3T41 39Q41 74 45 113T53 191L112 695L215 696Q248 696 270 690T298 660L432 126L371 128L582 624Q597 659 640 677T737 696Q760 696 775 686T788 649L720 -8H621Q601 -8 592 7T583 58Q583 96 584 143T593
234L637 550L644 546L495 200Q467 137 449 100T416 43T388 18T356 12Q338 12 328 21T312 52L186 551L200 552L168 293Q158 214 159 167T165 95T176 55T182 29Q182 18 170 11T138 -2T101 -9T71 -12Z" />
<glyph unicode="N" horiz-adv-x="667" d="M71 -12Q55 -12 50 3T45 39Q45 74 49 113T57 191L112 695L207 696Q223 696 237 692T265 664Q313 580 366 497T469 339T551 202L509 172L531 387Q539 464 539 511T534 584T525 626T520 654Q520 664 531 671T559 684T592
691T618 694Q637 694 647 674T657 634Q657 617 654 595T645 524L631 392Q621 298 618 239T614 144T615 87T617 46Q617 35 603 25T568 6T526 -6T488 -11Q473 -11 467 -2T462 23Q463 36 455 56T435 99T414 137Q382 195 337 262T243 402T155 550L194 552L167 293Q160
224 159 180T161 109T168 69T175 47T179 28Q179 17 166 10T135 -3T98 -10T71 -12Z" />
<glyph unicode="O" horiz-adv-x="740" d="M339 -16Q250 -16 183 17T78 118T40 283Q40 375 69 451T150 581T272 666T423 696Q563 696 642 621T722 398Q722 305 693 230T612 99T490 14T339 -16ZM352 64Q394 64 430 86T494 151T537 250T553 378Q553 458 535 511T484
590T407 616Q350 616 305 577T235 466T209 302Q209 222 227 169T278 90T352 64Z" />
<glyph unicode="P" horiz-adv-x="573" d="M81 -8Q60 -8 52 8T44 51Q44 71 47 96L110 680H314Q444 680 506 639T568 503Q568 445 542 397T475 314T388 260T299 240Q285 240 271 247T247 265T237 291Q237 302 244 306T265 315Q311 327 342 351T389 410T405 490Q405
535 386 559T332 592T249 602L183 -8H81Z" />
<glyph unicode="Q" horiz-adv-x="737" d="M608 -180Q570 -180 530 -157T451 -95T377 -6L475 38Q504 12 527 -6T576 -36T636 -52T722 -57Q738 -57 742 -63T747 -77Q747 -91 735 -108T703 -142T658 -169T608 -180ZM339 -16Q250 -16 183 17T78 118T40 283Q40 375
69 451T150 581T272 666T423 696Q563 696 642 621T722 398Q722 305 693 230T612 99T490 14T339 -16ZM352 64Q394 64 430 86T494 151T537 250T553 378Q553 458 535 511T484 590T407 616Q350 616 305 577T235 466T209 302Q209 222 227 169T278 90T352 64Z" />
<glyph unicode="R" horiz-adv-x="597" d="M447 -9Q417 -9 383 30T314 133T248 270Q244 279 240 288T235 308Q235 319 242 323T257 329Q325 342 364 383T403 488Q403 531 386 556T335 593T251 605H247L181 -8H80Q59 -8 51 8T43 51Q43 71 46 96L110 680Q154 685
197 687T284 690Q371 690 434 670T531 608T566 499Q566 446 545 408T490 345T418 305T347 282L353 342Q389 267 423 218T486 141T528 100Q553 81 565 74T578 57Q578 48 564 37T529 15T485 -2T447 -9Z" />
<glyph unicode="S" horiz-adv-x="527" d="M218 -13Q129 -13 73 13T16 88Q16 127 24 144T47 162Q57 162 74 149T116 120T171 90T237 77Q290 77 314 101T339 159Q339 193 324 216T270 264L197 312Q163 334 134 359T85 419T66 500Q66 562 99 606T192 673T327 696Q391
696 426 688T476 665T490 627Q490 599 482 578T460 557Q450 557 438 565T405 581Q386 590 360 597T302 605Q263 605 240 583T216 525Q216 497 232 476T283 437L349 403Q393 381 427 358T480 299T500 208Q500 102 424 45T218 -13Z" />
<glyph unicode="T" horiz-adv-x="541" d="M214 -8Q195 -8 186 14T176 64Q176 91 179 124T190 216L232 589L117 562Q105 559 92 556T70 553Q60 553 53 561T47 588Q48 610 54 631T71 666T92 680H321Q398 680 446 683T520 688T557 691Q567 691 571 687T576 671Q577
651 570 627T551 584T528 565Q520 565 501 569T459 577L382 589L316 -8H214Z" />
<glyph unicode="U" horiz-adv-x="669" d="M325 -16Q225 -16 164 9T78 88T63 226L112 695H212Q230 695 243 686T257 649Q257 625 255 601T248 545T239 466L217 262Q206 160 235 116T349 71Q388 71 421 86T476 136T505 230L526 424Q532 480 531 517T524 578T515
619T510 649Q510 662 528 672T571 689T614 695Q630 695 639 685T653 659T658 631Q658 614 655 585T648 524L617 238Q606 138 570 83T472 6T325 -16Z" />
<glyph unicode="V" horiz-adv-x="681" d="M262 -14Q254 -14 247 -9T235 20Q224 94 206 175T165 338T119 493Q107 532 97 552T75 588Q64 603 53 613T41 632Q41 642 57 653T96 673T143 689T186 695Q207 695 221 677T249 619T279 510L375 93L316 81L507 491Q520 520
526 539T535 574T540 611Q542 630 560 645T603 672T651 689T686 695Q717 695 717 677Q717 667 707 648L401 52Q394 38 374 23T325 -3T262 -14Z" />
<glyph unicode="W" horiz-adv-x="860" d="M493 -14Q485 -14 477 -9T466 20L420 418L407 490Q400 534 393 556T377 594Q369 609 363 616T356 633Q356 644 370 655T405 675T449 689T490 695Q518 695 532 654T554 510L588 87L541 76L697 491Q708 520 711 539T714
574T716 611Q718 630 736 645T780 672T830 689T868 695Q896 695 896 678Q896 672 894 665T887 648L630 52Q624 38 604 23T556 -3T493 -14ZM174 -14Q161 -14 153 -9T142 15L94 446Q89 495 84 522T73 565T62 591Q54 606 48 614T41 631Q41 642 56 653T93 673T138 689T180
695Q199 695 211 678T231 620T243 510L268 93L216 81L437 560L447 380L303 50Q292 26 259 6T174 -14Z" />
<glyph unicode="X" horiz-adv-x="668" d="M77 -13Q35 -13 16 15T-4 84Q-4 109 1 126T22 143Q37 143 58 136T102 129Q114 129 130 139T169 176T223 246T297 360L322 376Q360 444 396 502T470 604T546 671T628 695Q657 695 671 682T686 644Q686 616 679 591T659
550T631 534Q621 534 608 538T575 544Q547 545 497 493T383 321L353 305Q321 247 290 190T225 88T156 15T77 -13ZM517 -8Q483 -8 452 25T389 121T315 272L299 306Q229 451 179 525T78 613Q62 618 56 622T49 636Q49 653 72 666T127 688T185 696Q213 696 238 680T288
629T339 543T394 419L406 395Q444 320 472 269T521 186T559 135T591 102Q601 94 613 84T634 65T643 49Q643 40 630 31T597 12T556 -2T517 -8Z" />
<glyph unicode="Y" horiz-adv-x="605" d="M258 253L162 469Q140 516 121 546T82 593Q59 613 51 622T42 642Q42 654 62 666T110 686T162 695Q199 695 227 657T287 539L365 348L299 326L406 494Q433 535 438 566T446 616Q448 638 469 653T519 678T576 691T621 695Q641
695 641 678Q641 668 633 653T611 619L353 261L258 253ZM257 -8Q234 -8 225 7T216 56Q216 88 219 113L246 352L389 329L353 -8H257Z" />
<glyph unicode="Z" horiz-adv-x="546" d="M43 -9Q26 -9 17 13T9 55Q10 72 15 80T34 110Q112 225 179 316T303 486T408 643L435 605L160 565Q136 562 118 560T91 557Q77 557 70 564T63 590Q63 604 69 628T88 671T116 691Q139 691 193 686T333 680H520Q540 680 543
660T542 616T526 575Q470 486 407 397T280 218T161 40L91 68L441 134Q470 139 489 143T515 147Q530 147 530 126Q530 110 525 88T510 47T486 14T456 0H363Q281 0 221 -2T117 -6T43 -9Z" />
<glyph unicode="[" horiz-adv-x="353" d="M12 -170L102 680H209L119 -170H12ZM97 -170L98 -101H189Q228 -101 248 -115T261 -162Q258 -170 249 -170H97ZM162 611L166 680H318Q331 680 331 667Q331 638 312 625T253 611H162Z" />
<glyph unicode="\" horiz-adv-x="308" d="M152 625L265 -116Q268 -131 268 -138Q269 -155 258 -162T239 -169Q218 -169 199 -150T173 -93L46 668Q44 684 54 690T78 696Q102 696 125 675T152 625Z" />
<glyph unicode="]" horiz-adv-x="353" d="M345 680L255 -170H148L238 680H345ZM260 680L259 611H168Q130 611 110 625T96 672Q99 680 108 680H260ZM195 -101L192 -170H40Q26 -170 26 -157Q27 -128 46 -115T104 -101H195Z" />
<glyph unicode="^" horiz-adv-x="550" d="M132 196Q114 196 107 208T111 248L243 553Q264 600 285 622T333 644Q346 644 362 636T385 602L475 297Q478 288 478 280T478 263Q478 237 455 221T413 204Q399 204 395 210T386 235L306 573H336L210 252Q197 220 175
208T132 196Z" />
<glyph unicode="_" horiz-adv-x="597" d="M12 -86Q12 -75 19 -62T38 -38T67 -28H509Q521 -28 521 -44Q521 -65 506 -83T471 -102H24Q16 -102 14 -98T12 -86Z" />
<glyph unicode="`" horiz-adv-x="223" d="M-33 552L-163 694Q-168 701 -175 704T-193 707Q-207 707 -222 697T-248 671T-258 637Q-258 626 -252 621T-232 608L-80 524Q-73 520 -68 520T-55 519Q-44 519 -35 525T-25 539Q-25 542 -27 545T-33 552Z" />
<glyph unicode="a" horiz-adv-x="555" d="M138 -16Q82 -16 53 30T24 157Q24 230 47 291T109 396T198 465T304 490Q347 490 382 479T443 455L414 331Q388 349 356 367T294 396T245 408Q222 408 203 378T172 299T160 195Q160 147 166 117T188 87Q199 87 227 114T296
209T387 394L422 301Q368 181 319 112T226 13T138 -16ZM388 -10Q360 -10 351 6T342 44Q342 61 346 87T358 145T373 204L395 279L363 305L387 456Q419 461 447 469T495 483T526 489Q542 489 542 472Q542 464 530 428T503 337T482 216L460 -10H388Z" />
<glyph unicode="b" horiz-adv-x="547" d="M228 -16Q220 -16 196 -11T141 4T85 24L137 137Q158 118 182 102T230 76T275 66Q309 66 334 92T373 166T387 279Q387 327 381 357T359 387Q351 387 333 373T288 324T229 230T159 80L126 161Q180 288 229 359T323 460T409
490Q465 490 494 443T523 317Q523 220 486 145T383 27T228 -16ZM228 -16Q167 -16 123 -5T56 28T35 80L104 697H191Q213 697 227 673T242 621Q242 587 237 561T221 490L151 189L171 34L228 -16Z" />
<glyph unicode="c" horiz-adv-x="421" d="M193 -16Q112 -16 66 33T20 174Q20 264 57 336T159 449T306 491Q357 491 390 477T423 427Q423 412 416 393T399 361T377 348Q371 348 364 352T351 362Q341 371 326 383T291 404T253 413Q226 413 206 385T174 309T162 206Q162
145 180 117T235 88Q269 88 295 98T344 124Q353 130 361 134T375 138Q381 138 384 134T388 123Q388 105 374 81T334 35T272 -1T193 -16Z" />
<glyph unicode="d" horiz-adv-x="581" d="M137 -16Q82 -16 53 29T24 157Q24 230 46 291T108 396T198 465T304 490Q344 490 379 479T440 455L410 333Q383 351 352 368T293 397T246 408Q223 408 204 378T172 299T160 195Q160 147 169 119T193 91Q206 91 234 117T304
210T395 394L426 291Q373 171 323 104T227 11T137 -16ZM402 -13Q387 -13 376 0T360 33T354 66Q354 94 365 135T394 223L411 272L374 311L385 416L399 433L418 697H504Q520 697 531 685T549 655T556 620Q556 611 555 598T552 562T544 503L511 273Q506 231 500 179T490
76T485 -13H402Z" />
<glyph unicode="e" horiz-adv-x="455" d="M191 -16Q114 -16 67 32T20 166Q20 237 41 296T101 399T189 467T298 491Q363 491 404 462T446 377Q446 323 407 282T297 212T131 162L118 229Q168 235 210 251T279 295T308 360Q309 385 300 400T269 416Q241 416 217 387T177
309T162 206Q162 148 177 120T235 91Q278 91 315 106T377 138Q385 143 392 147T405 151Q411 151 415 146T419 134Q419 116 404 91T359 42T287 1T191 -16Z" />
<glyph unicode="f" horiz-adv-x="340" d="M48 -219Q32 -219 25 -209T17 -184Q17 -167 21 -137L94 471Q108 587 173 641T339 696Q388 696 411 682T434 638Q434 621 430 603T418 573T398 560Q390 560 374 574T338 603T296 618Q269 618 258 586T240 499L207 208Q200
149 195 89T185 -24Q182 -49 168 -82T132 -146T89 -198T48 -219ZM46 392Q39 392 36 397T35 409L49 447Q55 463 64 469T101 475H341Q354 475 349 459Q337 424 326 408T286 392H46Z" />
<glyph unicode="g" horiz-adv-x="549" d="M202 -221Q153 -221 111 -206T44 -159T19 -73Q19 -46 32 -46Q39 -46 49 -51T72 -64Q91 -75 122 -90T186 -118T246 -130Q259 -130 270 -125T291 -103T313 -52T337 42L394 313L376 337L377 465Q441 473 474 481T519 489Q539
489 539 471Q539 464 527 429T500 338T483 210L476 30Q473 -40 447 -88T381 -165T293 -208T202 -221ZM138 -14Q82 -14 53 32T24 159Q24 231 47 291T109 396T198 465T303 490Q346 490 381 479T442 455L413 331Q386 349 354 367T293 396T244 408Q222 408 203 378T172
299T161 198Q161 149 169 121T193 93Q205 93 233 119T302 211T392 394L422 291Q368 171 320 105T226 12T138 -14Z" />
<glyph unicode="h" horiz-adv-x="566" d="M378 -10Q366 -10 359 0T348 23T345 45Q345 59 347 81T352 127T358 170L375 271Q378 293 382 313T386 348Q386 359 381 366T367 374Q354 374 327 351T270 283T214 174T181 29L149 170Q190 286 241 356T342 458T433 490Q480
490 503 465T527 399Q527 376 524 353T516 303L468 -10H378ZM75 -14Q62 -14 54 -8T43 17T44 76L87 470Q93 527 102 583T114 697H201Q224 697 238 671T252 618Q252 596 249 578T242 540T231 491L164 198L196 239Q189 175 186 118T181 29Q180 17 160 8T115 -8T75
-14Z" />
<glyph unicode="i" horiz-adv-x="261" d="M80 -16Q62 -16 52 9T42 63Q42 91 44 113T50 170L86 491H177Q201 491 209 469T218 419Q218 405 216 390T210 342L191 179Q186 129 181 94T173 33T166 -16H80ZM168 532Q136 532 112 554T88 613Q88 655 115 679T180 703Q213
703 236 683T259 624Q259 584 232 558T168 532Z" />
<glyph unicode="j" horiz-adv-x="257" d="M-46 -221Q-71 -221 -92 -207T-127 -167T-140 -110Q-140 -97 -136 -89T-124 -81Q-117 -81 -110 -85T-89 -98Q-69 -110 -46 -120T-6 -131Q3 -131 10 -123T23 -92T36 -24T49 92L88 491H176Q196 491 207 476T223 441T227
406Q227 385 221 350T208 271T196 183L177 -1Q169 -76 135 -125T53 -197T-46 -221ZM167 532Q135 532 111 554T87 613Q87 655 114 679T179 703Q212 703 235 683T258 624Q258 584 231 558T167 532Z" />
<glyph unicode="k" horiz-adv-x="543" d="M401 -11Q377 -11 353 10T307 65T266 142T232 227Q228 239 223 256T218 289Q218 300 221 309T232 330Q252 362 283 391T351 443T425 479T494 492Q524 492 533 477T542 438Q542 416 536 396T521 364T501 351Q488 351 471
361T430 371Q383 371 350 349T297 294L309 345Q352 242 395 178T470 87Q489 72 501 65T513 47Q513 34 493 21T447 -2T401 -11ZM94 -14Q64 -14 53 5T43 59Q44 93 48 140T59 233L91 487Q97 527 91 556T78 608T71 650Q71 663 89 673T134 690T182 697Q213 697 228 674T243
620Q243 608 241 576T233 503L201 273Q191 201 186 127T176 -14H94Z" />
<glyph unicode="l" horiz-adv-x="272" d="M94 -14Q64 -14 53 5T43 59Q44 93 48 140T59 233L91 487Q97 527 91 556T78 608T71 650Q71 663 89 673T134 690T182 697Q213 697 228 674T243 620Q243 608 241 576T233 503L201 273Q191 201 186 127T176 -14H94Z" />
<glyph unicode="m" horiz-adv-x="865" d="M674 -10Q659 -10 652 3T643 32T641 56Q641 70 642 89T647 130T653 170L670 274Q673 294 677 314T681 350Q681 362 676 368T662 374Q649 374 622 351T565 282T510 174T479 33L442 175Q483 291 535 360T639 459T729 490Q763
490 783 478T813 444T822 399Q822 374 819 352T811 303L763 -10H674ZM64 -14Q51 -14 44 -10T35 14T39 75L86 491H175Q199 491 210 469T221 419Q221 406 211 379T189 321T169 267L143 185L192 191L175 31Q174 18 160 10T125 -4T88 -12T64 -14ZM364 -11Q344 -11 341
-1T337 23Q337 41 340 73T354 170L371 274Q374 294 378 314T382 351Q382 363 377 368T364 374Q350 374 323 350T264 280T208 172T175 31L141 182Q171 269 209 328T287 422T364 474T429 490Q464 490 482 478T506 447T512 408Q512 385 502 354T477 280T444 180L493
195L479 33Q478 21 464 13T429 -1T391 -9T364 -11Z" />
<glyph unicode="n" horiz-adv-x="565" d="M375 -10Q360 -10 353 3T344 32T341 56Q341 70 343 89T347 130T353 170L370 274Q373 294 377 314T381 350Q381 362 376 368T363 374Q350 374 323 350T265 280T209 171T176 30L141 182Q171 269 209 328T287 422T364 474T430
490Q464 490 484 478T514 445T523 401Q523 375 520 352T512 303L464 -10H375ZM64 -14Q51 -14 44 -10T35 14T39 75L86 491H175Q198 491 209 469T221 419Q221 406 211 379T189 321T169 267L143 185L192 191L176 30Q175 18 160 9T125 -5T87 -12T64 -14Z" />
<glyph unicode="o" horiz-adv-x="507" d="M215 -15Q122 -15 72 34T21 178Q21 245 42 302T101 401T188 467T294 491Q386 491 436 442T486 296Q486 230 465 174T407 75T321 9T215 -15ZM234 60Q265 60 289 88T328 168T343 285Q343 348 324 382T272 416Q242 416 217
388T178 309T164 191Q164 127 183 94T234 60Z" />
<glyph unicode="p" horiz-adv-x="549" d="M238 -16Q203 -16 165 -5T93 22L136 141Q156 122 185 105T243 77T292 66Q319 66 341 92T377 166T391 279Q391 327 386 355T365 384Q356 384 326 358T253 266T158 80L127 166Q184 293 233 363T326 461T411 490Q473 490
499 443T525 317Q525 220 488 145T386 27T238 -16ZM64 -219Q48 -219 38 -206T24 -174T19 -140Q19 -120 21 -92T28 -23L86 491H163Q179 491 190 479T208 451T214 419Q214 400 200 362T166 267L139 191H180L165 56L157 43L151 -219H64Z" />
<glyph unicode="q" horiz-adv-x="567" d="M138 -16Q82 -16 53 29T24 157Q24 230 46 291T108 396T198 465T304 490Q344 490 381 479T443 455L413 330Q386 353 356 370T299 398T252 408Q228 408 207 378T173 299T160 195Q160 147 169 119T193 91Q201 91 220 105T267
152T328 243T397 390L428 296Q375 176 325 108T228 12T138 -16ZM397 -219Q384 -219 370 -205T347 -168T337 -117Q337 -89 340 -64T348 -11L410 313L381 337L387 463Q451 471 485 480T532 489Q551 489 551 471Q551 464 540 430T516 340T496 205L485 56Q481 -2 479
-74T474 -219H397Z" />
<glyph unicode="r" horiz-adv-x="407" d="M175 29L142 175Q179 271 217 341T295 451T376 490Q401 490 416 476T431 431Q431 409 426 388T410 352T386 338Q373 338 357 346T317 355Q302 355 281 329T239 258T200 154T175 29ZM64 -14Q51 -14 44 -10T35 14T39 75L86
491H175Q198 491 209 469T221 419Q221 406 212 379T191 321T171 267L147 185L192 191L175 29Q174 17 159 9T124 -5T87 -12T64 -14Z" />
<glyph unicode="s" horiz-adv-x="418" d="M174 -16Q93 -16 47 8T1 78Q1 106 9 123T28 141Q36 141 43 137T66 122Q84 109 108 96T158 75T204 66Q229 66 244 77T259 111Q259 127 250 138T216 165L145 208Q103 234 78 265T53 341Q53 408 103 449T253 490Q317 490
350 478T384 433Q384 404 375 382T349 360Q344 360 337 363T324 369Q314 374 296 384T258 402T219 411Q198 411 187 400T176 372Q176 356 185 344T223 320L290 292Q340 271 365 240T391 161Q391 103 361 64T282 4T174 -16Z" />
<glyph unicode="t" horiz-adv-x="343" d="M140 -16Q92 -16 67 12T49 100L88 392H60Q40 392 40 410Q40 422 54 443T91 489T138 536T184 572T219 587Q233 587 239 578T244 549L235 475H337Q352 475 354 470T353 454Q341 415 331 404T292 392H222L197 191Q195 172
194 155T192 124Q192 108 200 99T229 89Q252 89 269 99T295 109Q307 109 307 95Q307 83 297 65T265 28T212 -3T140 -16Z" />
<glyph unicode="u" horiz-adv-x="551" d="M132 -13Q93 -13 67 9T40 78Q40 93 40 107T43 140T50 193L88 491H171Q188 491 200 472T213 424Q213 403 210 369T201 294L188 209Q184 181 182 163T180 130Q180 117 183 108T197 98Q210 98 230 119T274 174T317 247T349
324T362 390Q362 413 357 428T352 454Q352 463 366 470T401 481T441 488T470 491Q490 491 501 471T509 414L462 -10H384Q371 -10 362 1T347 27T341 55Q341 78 348 105T369 174T400 282V265Q361 163 316 102T225 14T132 -13Z" />
<glyph unicode="v" horiz-adv-x="511" d="M193 -16Q148 -16 119 15T84 107L62 331Q60 354 56 377T44 415Q37 429 32 434T27 448Q27 456 40 463T73 477T113 487T148 491Q169 491 180 472T197 397L224 143Q227 114 232 101T250 88Q257 88 272 103T306 152T336 239T349
370Q349 394 343 407T336 430Q336 440 349 451T381 471T420 485T451 491Q465 491 479 484T493 444Q493 397 479 337T438 215T374 101T292 16T193 -16Z" />
<glyph unicode="w" horiz-adv-x="738" d="M465 -16Q419 -16 394 17T369 105Q368 121 368 138T370 197L334 198L330 308Q329 327 326 348T317 388T307 416Q300 431 295 436T290 450Q290 458 303 465T337 478T377 487T412 491Q433 491 446 474T464 397L486 133Q488
111 493 100T507 88Q527 88 545 123T574 214T586 334Q586 375 576 395T565 428Q565 438 579 449T612 469T651 485T681 491Q697 491 707 483T717 445Q717 343 694 259T632 113T550 18T465 -16ZM196 -16Q145 -16 117 18T81 135L63 331Q61 354 56 377T44 415Q37 429
32 434T27 448Q27 456 40 463T72 477T111 487T144 491Q162 491 176 472T197 397L220 171Q225 131 230 110T248 88Q260 88 279 111T314 183T330 308L384 231Q374 136 344 82T274 6T196 -16Z" />
<glyph unicode="x" horiz-adv-x="507" d="M55 -15Q31 -15 18 -3T-1 28T-7 68Q-7 86 0 92T17 98Q47 98 73 113T128 160T192 244L254 311Q294 386 328 424T391 476T447 490Q467 490 482 478T498 441Q498 424 494 406T482 375T463 363Q451 363 438 367T411 372Q386
372 358 343T304 267L222 167Q192 102 166 62T114 3T55 -15ZM353 -12Q329 -12 302 18T240 126L203 207L196 214L160 276Q138 316 122 340T93 379T70 405Q57 420 47 427T37 443Q37 453 56 464T103 484T154 492Q167 492 181 484T212 453T252 381L285 311L300 286L336
226Q364 178 383 150T416 105T440 77Q453 63 463 56T473 41Q473 29 460 20T426 3T386 -8T353 -12Z" />
<glyph unicode="y" horiz-adv-x="552" d="M178 -221Q122 -221 87 -205T36 -158T19 -83Q19 -67 25 -59T38 -50Q45 -50 51 -56T70 -70Q89 -82 114 -95T167 -119T222 -129Q241 -129 260 -116T298 -65T337 45L395 273H400Q365 175 319 112T222 18T122 -12Q80 -12 60
11T40 75Q40 95 42 119T51 194L88 491H171Q188 491 201 472T215 424Q215 408 214 390T209 348T201 295L188 209Q184 181 182 163T180 130Q180 117 183 108T197 98Q211 98 231 119T273 173T314 244T346 318T358 379Q358 396 357 415T355 447Q355 459 375 469T422
485T472 491Q490 491 500 474T507 419Q507 402 503 374T496 316L465 30Q457 -38 429 -85T360 -163T272 -207T178 -221Z" />
<glyph unicode="z" horiz-adv-x="471" d="M30 0Q22 0 18 7T14 32Q14 51 17 66T27 90Q57 136 94 183T168 271Q206 313 240 351T296 427L340 414L124 374Q109 371 91 370T64 369Q56 369 51 376T45 395Q45 409 51 432T68 473T94 491Q100 491 133 487T211 479T300
475H430Q441 475 448 470T456 455Q456 445 453 430T436 394Q412 357 380 318T308 235Q269 192 229 147T157 51L113 69L373 122Q393 126 404 128T419 130Q428 130 432 122T431 91Q424 43 414 22T386 0H30Z" />
<glyph unicode="{" horiz-adv-x="332" d="M9 253Q9 287 17 305T42 324Q55 324 72 319T114 303Q118 316 120 329T124 364T125 426V565Q125 614 150 642T218 683T311 696H344Q359 696 363 692T368 682Q368 670 357 657T326 639Q285 632 265 625T238 605T231 563L232
379Q232 336 214 310T165 270T101 252L130 290Q166 278 184 262T209 228T215 197Q215 179 212 165T207 143L172 -33Q171 -41 170 -48T168 -66Q168 -79 179 -90T230 -109Q256 -113 268 -125T280 -152Q280 -169 255 -169Q151 -169 105 -146T58 -71Q58 -63 59 -55T62
-34L99 154Q104 177 105 191T106 214Q106 219 106 224T105 233Q83 229 61 225T28 220Q16 220 13 231T9 253Z" />
<glyph unicode="|" horiz-adv-x="261" d="M202 582L143 -187Q142 -201 132 -211T107 -221Q91 -221 75 -205T59 -163L119 668Q120 685 130 690T151 696Q165 696 177 687T197 664T206 638Q206 621 205 608T202 582Z" />
<glyph unicode="}" horiz-adv-x="332" d="M328 274Q328 240 320 222T295 203Q282 203 265 208T224 224Q220 212 218 199T214 163T213 101V-38Q213 -87 187 -115T119 -156T26 -169H-7Q-22 -169 -26 -165T-31 -155Q-31 -143 -20 -130T11 -112Q53 -104 73 -98T99
-78T106 -36L105 148Q105 192 124 218T173 257T236 275L207 237Q171 250 153 266T129 299T122 330Q122 348 125 362T130 384L165 560Q167 568 168 575T169 593Q169 606 158 617T107 636Q82 641 70 653T58 679Q58 696 82 696Q187 696 233 673T279 598Q279 591 279
583T275 561L239 373Q235 350 234 336T232 313Q232 308 232 304T233 294Q255 299 277 303T309 307Q321 307 324 296T328 274Z" />
<glyph unicode="~" horiz-adv-x="550" d="M72 244Q72 281 88 313T130 365T188 385Q223 385 250 370T299 335T340 299T379 284Q400 284 411 297T432 347Q434 358 440 363T456 369Q467 369 482 362T497 332Q497 295 481 263T439 211T381 191Q346 191 319 206T271
241T230 277T190 292Q169 292 158 279T139 229Q136 218 131 213T114 207Q100 207 86 215T72 244Z" />
<glyph unicode="&#xa0;" horiz-adv-x="215" />
<glyph unicode="&#xa1;" horiz-adv-x="231" d="M138 -153Q137 -179 125 -194T93 -215T52 -221Q21 -221 4 -209T-14 -171Q-14 -166 -13 -160T-11 -146L32 46Q49 120 59 166T80 237T103 271T135 281Q142 281 149 277T155 260L138 -153ZM139 495Q172 495 195 473T219
415Q219 372 192 348T128 324Q94 324 71 344T48 403Q48 443 75 469T139 495Z" />
<glyph unicode="&#xa2;" horiz-adv-x="580" d="M260 -16Q169 -16 123 33T76 159Q76 233 103 294T178 399T283 467T405 491Q433 491 459 487T501 470T518 434Q518 406 505 383T477 359Q466 359 454 367Q443 374 428 384T394 403T355 411Q310 411 277 381T226 304T207
206Q207 148 231 119T301 90Q348 90 383 102T443 128Q461 139 470 139Q477 139 481 134T486 118Q486 94 458 62T380 7T260 -16ZM266 -218Q249 -218 235 -201T221 -162Q221 -147 224 -133T229 -102L351 664Q355 683 362 689T378 695Q394 694 406 683T424 658T431
630Q431 615 428 602T423 576L300 -171Q296 -195 288 -206T266 -218Z" />
<glyph unicode="&#xa3;" horiz-adv-x="580" d="M30 31Q41 43 52 60T74 106T88 186L107 381Q119 500 158 569T256 667T381 696Q470 696 512 675T555 609Q555 579 544 560T521 541Q510 541 497 549T469 564Q453 573 432 583T386 601T341 609Q305 609 288 585T263
507T247 362L234 220Q229 163 215 127T178 68T127 30L132 63L479 132Q490 134 498 134T511 135Q520 135 524 129T529 109Q529 84 519 59T492 17T452 0Q333 0 251 -2T120 -6T47 -9Q29 -9 23 3T30 31ZM496 385Q508 385 511 381T514 368Q514 355 506 339T482 311T437
298L49 289Q37 289 34 295T31 311Q31 321 38 335T60 362T99 374L496 385Z" />
<glyph unicode="&#xa4;" horiz-adv-x="580" d="M279 151Q227 151 190 173T133 234T113 318Q113 373 137 419T205 492T308 519Q364 519 400 497T455 437T473 354Q473 298 449 252T381 178T279 151ZM69 109Q53 122 56 143T76 180L166 266L226 212L131 119Q112 100
97 99T69 109ZM497 95Q484 86 469 88T435 110L356 199L410 261L496 168Q511 152 512 130T497 95ZM286 234Q329 234 356 264T383 345Q383 387 363 412T299 438Q256 438 230 406T203 329Q203 286 224 260T286 234ZM176 410L87 507Q81 515 78 530T77 561T89 586Q98
594 112 593T144 570L234 468L176 410ZM429 409L376 470L476 569Q496 588 509 589T531 581Q540 571 541 555T539 524T527 502L429 409Z" />
<glyph unicode="&#xa5;" horiz-adv-x="580" d="M256 261L160 463Q138 510 117 539T77 585Q54 604 46 613T37 634Q37 643 49 653T80 673T121 689T162 695Q186 695 206 678T246 621T290 519L351 348L279 326L380 494Q406 536 416 566T429 616Q431 638 451 653T500
678T556 691T601 695Q621 695 621 678Q621 668 613 653T591 619L333 261H256ZM230 -8Q208 -8 199 7T190 56Q190 88 193 113L220 352L363 329L327 -8H230ZM64 141Q52 141 49 147T46 163Q46 173 53 186T75 209T114 219L497 228Q509 228 512 224T515 211Q515 191 500
170T443 148L64 141ZM86 260Q74 260 71 266T68 282Q68 292 75 305T97 328T136 338L519 347Q531 347 534 343T537 330Q537 310 522 289T465 267L86 260Z" />
<glyph unicode="&#xa6;" horiz-adv-x="260" d="M200 582L179 313Q178 299 169 289T144 279Q126 279 111 297T98 344L119 670Q120 685 129 690T150 696Q163 696 175 687T196 663T204 636Q204 621 203 608T200 582ZM163 82L142 -187Q141 -201 132 -211T106 -221Q89
-221 74 -203T61 -156L81 170Q82 185 92 190T112 196Q126 196 138 187T159 163T167 136Q167 121 166 108T163 82Z" />
<glyph unicode="&#xa7;" horiz-adv-x="471" d="M-2 -77Q-2 -51 7 -31T29 -11Q33 -11 39 -13T62 -27Q96 -49 133 -66T207 -83Q242 -83 259 -64T277 -17Q277 4 264 22T221 57L139 104Q91 132 68 165T44 248Q44 291 67 322T127 373T203 396L192 381Q143 410 113 442T83
533Q83 604 139 649T298 695Q372 695 410 681T448 638Q448 623 443 606T428 577T409 565Q404 565 397 567T384 573Q374 577 355 586T311 604T262 612Q233 612 219 596T204 554Q204 532 218 515T264 481L337 443Q389 416 422 381T455 294Q455 249 431 217T369 166T291
144L298 162Q348 138 382 104T416 15Q416 -45 382 -86T294 -148T182 -170Q130 -170 89 -160T23 -128T-2 -77ZM162 274Q162 247 181 231T245 195Q278 195 298 215T318 262Q318 285 305 301T263 332Q212 331 187 315T162 274Z" />
<glyph unicode="&#xa8;" horiz-adv-x="233" d="M130 544Q103 544 83 562T63 610Q63 645 86 665T139 686Q167 686 186 669T205 619Q205 587 183 566T130 544ZM-57 544Q-83 544 -103 562T-123 610Q-123 645 -100 665T-47 686Q-19 686 0 669T19 619Q19 587 -3 566T-57 544Z" />
<glyph unicode="&#xa9;" horiz-adv-x="802" d="M372 -22Q274 -22 200 18T83 129T41 297Q41 383 71 456T156 585T285 672T447 703Q551 703 626 662T741 547T782 377Q782 290 752 217T666 91T536 8T372 -22ZM392 116Q340 116 298 137T230 201T204 306Q204 384 239
442T334 534T465 568Q520 568 546 552T573 497Q573 480 567 467T551 454Q545 454 539 457T522 467Q509 476 489 486T442 497Q386 497 354 452T322 317Q322 248 346 218T409 188Q431 188 450 197T485 220T513 243T535 253Q543 253 547 246T552 229Q552 205 531 179T475
134T392 116ZM380 53Q472 53 541 93T648 204T687 362Q687 437 660 497T577 592T439 628Q370 628 314 602T218 531T155 428T133 304Q133 231 162 174T247 85T380 53Z" />
<glyph unicode="&#xaa;" horiz-adv-x="477" d="M147 280Q102 280 76 317T50 421Q50 500 82 562T166 659T281 694Q316 694 346 685T397 665L373 564Q352 579 326 593T275 616T235 626Q216 626 201 602T176 537T166 446Q166 414 170 390T187 366Q198 366 221 388T277
465T351 616L380 539Q336 441 296 385T219 304T147 280ZM353 285Q330 285 322 298T313 329Q313 349 321 386T340 460L358 522L331 543L351 666Q389 672 422 682T468 693Q482 693 482 679Q482 673 472 644T449 569T432 470L414 285H353Z" />
<glyph unicode="&#xab;" horiz-adv-x="561" d="M320 436V436Q308 436 295 430T271 417L44 268Q34 261 29 255T23 240Q23 231 28 226T37 216L202 74Q219 59 230 53T251 47Q262 47 276 57T301 81T312 104Q312 110 310 115T298 128L150 240L211 283Q262 318 291 341T332
382T344 414Q344 424 338 430T320 436ZM530 436V436Q518 436 505 430T481 417L254 268Q244 261 239 255T233 240Q233 231 238 226T247 216L412 74Q429 59 440 53T461 47Q472 47 486 57T511 81T522 104Q522 110 520 115T508 128L360 240L421 283Q472 318 501 341T542
382T554 414Q554 424 548 430T530 436Z" />
<glyph unicode="&#xac;" horiz-adv-x="550" d="M420 93Q438 93 460 110T487 164L509 383Q510 391 507 395T491 400L120 391Q89 390 71 377T46 349T38 322Q38 311 43 306T63 300L408 307L394 163Q393 156 391 139T389 114Q389 102 397 98T420 93Z" />
<glyph unicode="&#xad;" horiz-adv-x="378" d="M253 293Q292 295 299 295T307 295Q319 295 324 290T329 275Q329 262 323 246T301 219T256 206L74 199Q73 199 71 199T68 199Q58 199 54 205T49 224Q49 243 66 264T121 287L253 293Z" />
<glyph unicode="&#xae;" horiz-adv-x="572" d="M280 185Q210 185 157 215T74 297T43 413Q43 470 64 521T125 613T218 676T333 699Q407 699 460 668T542 584T571 467Q571 389 533 325T430 223T280 185ZM287 248Q350 248 395 275T465 349T490 456Q490 507 473 548T420
613T327 637Q265 637 219 607T149 526T124 417Q124 368 142 330T198 270T287 248ZM191 328Q191 340 192 346L208 488Q210 502 210 513T208 529Q204 534 202 538T199 548Q199 558 226 570T292 583H308Q372 583 404 561T437 503Q437 471 405 446T326 415L329 438H351Q369
401 387 380T411 355Q421 348 428 346T435 338Q435 333 426 325T402 311T374 305Q354 305 337 328T297 399Q292 410 290 418T288 432Q288 438 292 441T303 446Q328 453 339 466T351 499Q351 520 338 533T291 548L275 394Q273 369 274 362T279 349Q284 342 284 338Q284
333 275 325T250 309T218 302Q204 302 198 308T191 328Z" />
<glyph unicode="&#xaf;" horiz-adv-x="205" d="M-271 628Q-269 643 -256 643H-12Q5 643 3 628L-3 584Q-5 569 -18 569H-263Q-280 569 -278 584L-271 628Z" />
<glyph unicode="&#xb0;" horiz-adv-x="422" d="M197 343Q147 343 110 364T53 422T33 505Q33 560 57 603T124 673T226 699Q280 699 316 678T371 621T389 539Q389 483 364 439T296 369T197 343ZM200 416Q242 416 270 446T298 532Q298 576 276 602T216 628Q175 628
149 596T123 514Q123 469 145 443T200 416Z" />
<glyph unicode="&#xb1;" horiz-adv-x="569" d="M487 137Q500 137 503 132T506 119Q506 105 499 89T476 61T431 49L49 43Q37 43 34 49T31 66Q31 77 38 91T60 117T101 129L487 137ZM506 379Q519 379 522 374T526 361Q526 347 519 330T496 301T450 288L74 280Q62
280 58 286T54 303Q54 314 61 329T85 356T126 369L506 379ZM351 427L328 223Q325 197 313 181T287 158T262 150Q252 150 243 153T234 169Q234 177 236 196T239 222L259 431Q262 460 273 477T301 501T330 508Q338 508 347 505T356 488Q356 479 355 465T351 427Z"
/>
<glyph unicode="&#xb2;" horiz-adv-x="378" d="M59 341L132 405Q184 450 220 491T257 573Q257 597 245 610T211 623Q184 623 161 608T126 586Q113 578 104 573T88 567Q78 567 71 584T63 622Q63 642 85 658T143 685T222 696Q262 696 297 687T356 654T379 587Q379
550 361 519T313 460T245 404L119 311L116 329L339 391Q350 394 359 396T374 398Q377 398 380 395T384 385Q384 374 381 356T370 320T353 289T328 277H265Q241 277 209 276T146 274T92 272T63 271Q53 271 48 280T43 299Q43 311 46 322T59 341Z" />
<glyph unicode="&#xb3;" horiz-adv-x="400" d="M271 494L277 512Q302 507 328 494T371 460T389 412Q389 369 359 338T281 291T176 274Q124 274 95 286T54 318T41 357Q41 374 45 384T58 394Q66 394 85 382T133 358T192 346Q233 346 251 364T269 413Q269 442 255
458T226 481L269 483Q255 475 235 468T196 457T166 452Q150 452 139 471T127 509Q127 532 144 532Q160 532 186 529T238 523T274 519L234 507Q249 518 257 540T265 579Q265 603 252 614T211 625Q192 625 172 618T133 602Q121 597 114 594T100 590Q94 590 88 602T81
632Q81 654 101 668T154 689T224 696Q292 696 333 673T375 607Q375 576 359 555T319 519T271 494Z" />
<glyph unicode="&#xb4;" horiz-adv-x="200" d="M-260 554Q-268 546 -268 540Q-268 532 -259 527T-238 521Q-231 521 -226 521T-213 525L-34 604Q-21 611 -15 617T-8 636Q-8 653 -17 669T-40 697T-68 708Q-82 708 -96 696L-260 554Z" />
<glyph unicode="&#xb5;" horiz-adv-x="531" d="M17 -146Q17 -133 17 -120T20 -88T24 -43L87 491H167Q186 491 194 472T203 424Q203 403 200 367T190 294L186 270Q181 238 178 211T175 163Q175 129 181 111T199 92Q211 92 230 113T270 169T310 244T340 323T352
390Q352 413 347 427T341 452Q341 464 359 472T402 486T446 491Q463 491 477 471T488 414L441 -10H358Q346 -10 339 2T330 31T327 55Q327 80 338 116T371 222Q332 132 304 80T253 5T204 -18Q173 -18 150 16T126 122L127 111L155 -219H76Q49 -219 33 -198T17 -146Z"
/>
<glyph unicode="&#xb6;" horiz-adv-x="659" d="M39 283Q39 373 72 448T167 579T310 665T489 696Q507 696 532 694T584 689T636 684T678 682Q694 682 694 665Q694 650 672 634T619 608T559 599L607 652L558 208Q551 149 546 89T536 -24Q533 -52 517 -85T479 -149T434
-199T395 -219Q367 -219 367 -188Q367 -167 370 -142L466 659L488 613Q398 613 334 572T234 457T198 283Q198 182 234 122T327 41Q351 32 360 28T370 13Q370 2 353 -7T312 -16Q233 -16 171 17T74 116T39 283Z" />
<glyph unicode="&#xb7;" horiz-adv-x="217" d="M106 176Q74 176 50 198T26 257Q26 299 53 323T118 347Q151 347 174 327T197 268Q197 228 170 202T106 176Z" />
<glyph unicode="&#xb8;" horiz-adv-x="214" d="M-285 18Q-283 27 -279 31T-268 36L-242 41Q-234 43 -230 39T-228 25L-255 -83L-269 -38Q-212 -38 -176 -59T-139 -119Q-139 -148 -156 -168T-202 -201T-264 -218T-328 -224Q-341 -224 -346 -219T-351 -206Q-351
-190 -344 -180T-323 -169Q-291 -165 -266 -156T-240 -125Q-240 -116 -247 -112T-279 -104Q-292 -102 -299 -95T-307 -74Q-307 -69 -306 -63T-303 -50L-285 18Z" />
<glyph unicode="&#xb9;" horiz-adv-x="358" d="M26 283Q26 298 58 314T144 346L172 582L92 572Q79 571 74 575T69 586Q69 599 85 615T145 651L222 685Q234 690 246 693T267 696Q286 696 289 681T287 629L255 363L320 378Q329 380 335 381T344 382Q351 382 354
376T358 359Q358 350 353 331T339 296T317 279H177Q152 279 122 278T68 274T41 272Q26 272 26 283Z" />
<glyph unicode="&#xba;" horiz-adv-x="438" d="M216 282Q139 282 96 322T52 441Q52 513 82 571T164 662T276 696Q352 696 395 656T439 536Q439 465 409 407T329 316T216 282ZM230 344Q270 344 295 394T320 527Q320 580 304 607T260 634Q234 634 214 611T183 546T172
451Q172 399 188 372T230 344Z" />
<glyph unicode="&#xbb;" horiz-adv-x="561" d="M242 50V50Q254 50 267 56T291 69L518 218Q529 225 534 231T539 246Q539 255 535 260T525 270L360 412Q344 427 333 433T311 439Q300 439 286 429T261 405T250 382Q250 376 253 371T264 358L412 246L351 203Q301
169 272 145T230 104T218 72Q218 62 224 56T242 50ZM32 50V50Q44 50 57 56T81 69L308 218Q319 225 324 231T329 246Q329 255 325 260T315 270L150 412Q134 427 123 433T101 439Q90 439 76 429T51 405T40 382Q40 376 43 371T54 358L202 246L141 203Q91 169 62 145T20
104T8 72Q8 62 14 56T32 50Z" />
<glyph unicode="&#xbc;" horiz-adv-x="852" d="M26 283Q26 298 58 314T144 346L172 582L92 572Q79 571 74 575T69 586Q69 599 85 615T145 651L222 685Q234 690 246 693T267 696Q286 696 289 681T287 629L255 363L320 378Q329 380 335 381T344 382Q351 382 354
376T358 359Q358 350 353 331T339 296T317 279H177Q152 279 122 278T68 274T41 272Q26 272 26 283ZM685 583L270 10Q260 -3 255 -10T236 -18Q224 -18 213 -2T202 26Q202 39 210 53T231 87L646 669Q655 682 660 686T673 690Q690 690 700 672T711 642Q711 623 702
609T685 583ZM482 125Q483 135 487 145T499 163L681 371Q704 397 717 401T750 406H794Q812 406 818 401T824 378Q824 356 822 333T814 267L784 -13H701Q685 -13 685 24Q685 49 687 76T692 126L718 373L749 349L544 105L528 143H756Q795 143 826 149T865 155Q878
155 878 141Q878 129 865 113T833 85T797 73L517 72Q492 72 485 76T479 97L482 125Z" />
<glyph unicode="&#xbd;" horiz-adv-x="930" d="M26 283Q26 298 58 314T144 346L172 582L92 572Q79 571 74 575T69 586Q69 599 85 615T145 651L222 685Q234 690 246 693T267 696Q286 696 289 681T287 629L255 363L320 378Q329 380 335 381T344 382Q351 382 354
376T358 359Q358 350 353 331T339 296T317 279H177Q152 279 122 278T68 274T41 272Q26 272 26 283ZM685 583L270 10Q260 -3 255 -10T236 -18Q224 -18 213 -2T202 26Q202 39 210 53T231 87L646 669Q655 682 660 686T673 690Q690 690 700 672T711 642Q711 623 702
609T685 583ZM585 64L658 128Q710 173 746 214T783 296Q783 320 771 333T737 346Q710 346 687 331T652 309Q639 301 630 296T614 290Q604 290 597 307T589 345Q589 365 611 381T669 408T748 419Q788 419 823 410T882 377T905 310Q905 273 887 242T839 183T771 127L645
34L642 52L865 114Q876 117 885 119T900 121Q903 121 906 118T910 108Q910 97 907 79T896 43T879 12T854 0H791Q767 0 735 -1T672 -3T618 -5T589 -6Q579 -6 574 3T569 22Q569 34 572 45T585 64Z" />
<glyph unicode="&#xbe;" horiz-adv-x="842" d="M271 494L277 512Q302 507 328 494T371 460T389 412Q389 369 359 338T281 291T176 274Q124 274 95 286T54 318T41 357Q41 374 45 384T58 394Q66 394 85 382T133 358T192 346Q233 346 251 364T269 413Q269 442 255
458T226 481L269 483Q255 475 235 468T196 457T166 452Q150 452 139 471T127 509Q127 532 144 532Q160 532 186 529T238 523T274 519L234 507Q249 518 257 540T265 579Q265 603 252 614T211 625Q192 625 172 618T133 602Q121 597 114 594T100 590Q94 590 88 602T81
632Q81 654 101 668T154 689T224 696Q292 696 333 673T375 607Q375 576 359 555T319 519T271 494ZM689 586L274 13Q264 0 259 -7T240 -15Q228 -15 217 1T206 29Q206 42 214 56T235 90L650 672Q659 685 664 689T677 693Q694 693 704 675T715 645Q715 626 706 612T689
586ZM473 128Q474 138 478 148T490 166L672 374Q695 400 708 404T741 409H785Q803 409 809 404T815 381Q815 359 813 336T805 270L775 -10H692Q676 -10 676 27Q676 52 678 79T683 129L709 376L740 352L535 108L519 146H747Q786 146 817 152T856 158Q869 158 869
144Q869 132 856 116T824 88T788 76L508 75Q483 75 476 79T470 100L473 128Z" />
<glyph unicode="&#xbf;" horiz-adv-x="410" d="M-20 -81Q-20 -33 4 5T67 71T148 120T227 155L142 85Q166 164 181 206T212 265T254 281Q273 281 280 274T286 252L280 145Q279 122 271 112T236 85Q180 48 155 15T130 -65Q130 -102 146 -121T194 -140Q230 -140 255
-126T298 -97T327 -82Q340 -82 349 -102T358 -143Q358 -174 313 -197T186 -221Q87 -221 34 -181T-20 -81ZM248 495Q281 495 305 473T329 415Q329 372 302 348T237 324Q204 324 181 344T158 403Q158 443 185 469T248 495Z" />
<glyph unicode="&#xc0;" horiz-adv-x="666" d="M12 -14Q-15 -14 -15 3Q-15 11 -7 29L289 625Q298 644 322 660T378 685T445 695Q457 695 465 690T477 665Q494 550 519 439T575 217Q589 170 599 141T619 97Q630 82 638 73T647 54Q647 43 632 32T595 10T551 -6T515
-12Q491 -12 468 27T422 170L335 587L373 599L181 189Q169 161 164 142T157 108T153 72Q151 53 133 38T90 11T43 -7T12 -14ZM142 190V275H514V190H142ZM498 757L368 899Q363 906 356 909T338 912Q324 912 309 902T283 876T273 842Q273 831 279 826T299 813L451
729Q458 725 463 725T476 724Q487 724 496 730T506 744Q506 747 504 750T498 757Z" />
<glyph unicode="&#xc1;" horiz-adv-x="666" d="M12 -14Q-15 -14 -15 3Q-15 11 -7 29L289 625Q298 644 322 660T378 685T445 695Q457 695 465 690T477 665Q494 550 519 439T575 217Q589 170 599 141T619 97Q630 82 638 73T647 54Q647 43 632 32T595 10T551 -6T515
-12Q491 -12 468 27T422 170L335 587L373 599L181 189Q169 161 164 142T157 108T153 72Q151 53 133 38T90 11T43 -7T12 -14ZM142 190V275H514V190H142ZM261 759Q253 751 253 745Q253 737 262 732T283 726Q290 726 295 726T308 730L487 809Q500 816 506 822T513
841Q513 858 504 874T481 902T453 913Q439 913 425 901L261 759Z" />
<glyph unicode="&#xc2;" horiz-adv-x="666" d="M12 -14Q-15 -14 -15 3Q-15 11 -7 29L289 625Q298 644 322 660T378 685T445 695Q457 695 465 690T477 665Q494 550 519 439T575 217Q589 170 599 141T619 97Q630 82 638 73T647 54Q647 43 632 32T595 10T551 -6T515
-12Q491 -12 468 27T422 170L335 587L373 599L181 189Q169 161 164 142T157 108T153 72Q151 53 133 38T90 11T43 -7T12 -14ZM142 190V275H514V190H142ZM227 761V761Q220 754 223 748T236 740L283 735Q291 734 297 737T307 745L384 825L448 746Q453 741 460 735T482
730L530 732Q542 733 545 740T544 754L469 868Q456 888 441 894T402 901Q380 901 365 895T340 879L227 761Z" />
<glyph unicode="&#xc3;" horiz-adv-x="666" d="M12 -14Q-15 -14 -15 3Q-15 11 -7 29L289 625Q298 644 322 660T378 685T445 695Q457 695 465 690T477 665Q494 550 519 439T575 217Q589 170 599 141T619 97Q630 82 638 73T647 54Q647 43 632 32T595 10T551 -6T515
-12Q491 -12 468 27T422 170L335 587L373 599L181 189Q169 161 164 142T157 108T153 72Q151 53 133 38T90 11T43 -7T12 -14ZM142 190V275H514V190H142ZM242 786Q242 810 251 833T278 872T320 887Q337 887 358 879T400 859T439 839T464 830Q474 830 478 839T487
864Q490 875 494 879T507 883Q524 883 536 878T549 855Q549 826 539 801T510 759T468 743Q441 743 415 757T366 785T327 799Q320 799 315 794T304 771Q301 760 297 755T281 750Q269 750 256 757T242 786Z" />
<glyph unicode="&#xc4;" horiz-adv-x="666" d="M12 -14Q-15 -14 -15 3Q-15 11 -7 29L289 625Q298 644 322 660T378 685T445 695Q457 695 465 690T477 665Q494 550 519 439T575 217Q589 170 599 141T619 97Q630 82 638 73T647 54Q647 43 632 32T595 10T551 -6T515
-12Q491 -12 468 27T422 170L335 587L373 599L181 189Q169 161 164 142T157 108T153 72Q151 53 133 38T90 11T43 -7T12 -14ZM142 190V275H514V190H142ZM481 749Q454 749 434 767T414 815Q414 850 437 870T490 891Q518 891 537 874T556 824Q556 792 534 771T481
749ZM294 749Q268 749 248 767T228 815Q228 850 251 870T304 891Q332 891 351 874T370 824Q370 792 348 771T294 749Z" />
<glyph unicode="&#xc5;" horiz-adv-x="666" d="M12 -14Q-15 -14 -15 3Q-15 11 -7 29L289 625Q298 644 322 660T378 685T445 695Q457 695 465 690T477 665Q494 550 519 439T575 217Q589 170 599 141T619 97Q630 82 638 73T647 54Q647 43 632 32T595 10T551 -6T515
-12Q491 -12 468 27T422 170L335 587L373 599L181 189Q169 161 164 142T157 108T153 72Q151 53 133 38T90 11T43 -7T12 -14ZM142 190V275H514V190H142ZM389 726Q343 726 316 753T288 818Q288 858 317 887T395 917Q441 917 467 890T494 826Q494 785 465 756T389
726ZM390 782Q406 782 417 793T428 824Q428 842 418 851T394 861Q377 861 366 851T354 820Q354 804 364 793T390 782Z" />
<glyph unicode="&#xc6;" horiz-adv-x="904" d="M1 -14Q-27 -14 -25 3Q-24 13 -7 35L431 611Q458 645 492 662T582 680L534 587L235 189Q206 150 192 113T168 48Q161 27 140 15T90 -3T38 -12T1 -14ZM219 190V275H569V190H219ZM479 -12Q461 -12 452 10T442 59Q442
98 451 186L501 680H669Q738 680 781 683T849 688T885 691Q896 691 904 688T913 669Q913 651 905 627T883 584T854 565Q844 565 818 570T763 579L645 598L600 172Q598 149 598 127T601 84L799 127Q817 131 833 135T856 139Q871 139 871 116Q871 96 862 69T837 21T799
0H759Q647 0 576 -6T479 -12ZM554 308L567 399H615Q658 399 694 402T755 408T787 411Q799 411 804 404T809 388Q809 373 791 355T743 324T676 310L554 308Z" />
<glyph unicode="&#xc7;" horiz-adv-x="616" d="M331 -16Q247 -16 181 17T77 118T39 283Q39 373 69 448T153 579T282 665T445 696Q531 696 576 677T621 607Q621 580 610 560T586 540Q577 540 561 549T530 567Q506 582 478 597T408 613Q348 613 302 575T229 466T202
301Q202 222 222 170T277 93T356 68Q394 68 424 84T478 121T521 157T557 173Q570 173 578 165T586 140Q586 98 552 62T459 5T331 -16ZM271 18Q273 27 277 31T288 36L314 41Q322 43 326 39T328 25L301 -83L287 -38Q344 -38 380 -59T417 -119Q417 -148 400 -168T354
-201T292 -218T228 -224Q215 -224 210 -219T205 -206Q205 -190 212 -180T233 -169Q265 -165 290 -156T316 -125Q316 -116 309 -112T277 -104Q264 -102 257 -95T249 -74Q249 -69 250 -63T253 -50L271 18Z" />
<glyph unicode="&#xc8;" horiz-adv-x="513" d="M88 -12Q70 -12 61 10T51 59Q51 98 60 186L110 680H278Q347 680 390 683T458 688T494 691Q505 691 513 688T522 669Q522 651 514 627T492 584T463 565Q453 565 427 570T372 579L254 598L209 172Q207 149 207 127T210
84L408 127Q426 131 442 135T465 139Q480 139 480 116Q480 96 471 69T446 21T408 0H368Q256 0 185 -6T88 -12ZM163 308L176 399H224Q267 399 303 402T364 408T396 411Q408 411 413 404T418 388Q418 373 400 355T352 324T285 310L163 308ZM422 757L292 899Q287 906
280 909T262 912Q248 912 233 902T207 876T197 842Q197 831 203 826T223 813L375 729Q382 725 387 725T400 724Q411 724 420 730T430 744Q430 747 428 750T422 757Z" />
<glyph unicode="&#xc9;" horiz-adv-x="513" d="M88 -12Q70 -12 61 10T51 59Q51 98 60 186L110 680H278Q347 680 390 683T458 688T494 691Q505 691 513 688T522 669Q522 651 514 627T492 584T463 565Q453 565 427 570T372 579L254 598L209 172Q207 149 207 127T210
84L408 127Q426 131 442 135T465 139Q480 139 480 116Q480 96 471 69T446 21T408 0H368Q256 0 185 -6T88 -12ZM163 308L176 399H224Q267 399 303 402T364 408T396 411Q408 411 413 404T418 388Q418 373 400 355T352 324T285 310L163 308ZM185 759Q177 751 177 745Q177
737 186 732T207 726Q214 726 219 726T232 730L411 809Q424 816 430 822T437 841Q437 858 428 874T405 902T377 913Q363 913 349 901L185 759Z" />
<glyph unicode="&#xca;" horiz-adv-x="513" d="M88 -12Q70 -12 61 10T51 59Q51 98 60 186L110 680H278Q347 680 390 683T458 688T494 691Q505 691 513 688T522 669Q522 651 514 627T492 584T463 565Q453 565 427 570T372 579L254 598L209 172Q207 149 207 127T210
84L408 127Q426 131 442 135T465 139Q480 139 480 116Q480 96 471 69T446 21T408 0H368Q256 0 185 -6T88 -12ZM163 308L176 399H224Q267 399 303 402T364 408T396 411Q408 411 413 404T418 388Q418 373 400 355T352 324T285 310L163 308ZM151 761V761Q144 754 147
748T160 740L207 735Q215 734 221 737T231 745L308 825L372 746Q377 741 384 735T406 730L454 732Q466 733 469 740T468 754L393 868Q380 888 365 894T326 901Q304 901 289 895T264 879L151 761Z" />
<glyph unicode="&#xcb;" horiz-adv-x="513" d="M88 -12Q70 -12 61 10T51 59Q51 98 60 186L110 680H278Q347 680 390 683T458 688T494 691Q505 691 513 688T522 669Q522 651 514 627T492 584T463 565Q453 565 427 570T372 579L254 598L209 172Q207 149 207 127T210
84L408 127Q426 131 442 135T465 139Q480 139 480 116Q480 96 471 69T446 21T408 0H368Q256 0 185 -6T88 -12ZM163 308L176 399H224Q267 399 303 402T364 408T396 411Q408 411 413 404T418 388Q418 373 400 355T352 324T285 310L163 308ZM405 749Q378 749 358 767T338
815Q338 850 361 870T414 891Q442 891 461 874T480 824Q480 792 458 771T405 749ZM218 749Q191 749 172 767T152 815Q152 850 175 870T228 891Q256 891 275 874T294 824Q294 792 272 771T218 749Z" />
<glyph unicode="&#xcc;" horiz-adv-x="279" d="M105 -8Q85 -8 73 6T56 43T51 87Q51 123 55 156T64 234L112 696H198Q230 696 242 679T255 635Q255 611 253 591T248 542T239 466L189 -8H105ZM305 757L175 899Q170 906 163 909T145 912Q131 912 116 902T90 876T80
842Q80 831 86 826T106 813L258 729Q265 725 270 725T283 724Q294 724 303 730T313 744Q313 747 311 750T305 757Z" />
<glyph unicode="&#xcd;" horiz-adv-x="279" d="M105 -8Q85 -8 73 6T56 43T51 87Q51 123 55 156T64 234L112 696H198Q230 696 242 679T255 635Q255 611 253 591T248 542T239 466L189 -8H105ZM68 759Q60 751 60 745Q60 737 69 732T90 726Q97 726 102 726T115 730L294
809Q307 816 313 822T320 841Q320 858 311 874T288 902T260 913Q246 913 232 901L68 759Z" />
<glyph unicode="&#xce;" horiz-adv-x="279" d="M105 -8Q85 -8 73 6T56 43T51 87Q51 123 55 156T64 234L112 696H198Q230 696 242 679T255 635Q255 611 253 591T248 542T239 466L189 -8H105ZM34 761V761Q27 754 30 748T43 740L90 735Q98 734 104 737T114 745L191
825L255 746Q260 741 267 735T289 730L337 732Q349 733 352 740T351 754L276 868Q263 888 248 894T209 901Q187 901 172 895T147 879L34 761Z" />
<glyph unicode="&#xcf;" horiz-adv-x="279" d="M105 -8Q85 -8 73 6T56 43T51 87Q51 123 55 156T64 234L112 696H198Q230 696 242 679T255 635Q255 611 253 591T248 542T239 466L189 -8H105ZM288 749Q261 749 241 767T221 815Q221 850 244 870T297 891Q325 891
344 874T363 824Q363 792 341 771T288 749ZM101 749Q75 749 55 767T35 815Q35 850 58 870T111 891Q139 891 158 874T177 824Q177 792 155 771T101 749Z" />
<glyph unicode="&#xd0;" horiz-adv-x="696" d="M28 314Q18 314 14 319T9 332Q9 358 30 381T78 404L373 403Q387 403 390 400T394 388Q394 379 388 361T370 329T340 314H28ZM95 -8Q77 -8 68 12T58 59Q58 98 67 186L117 680Q171 685 231 687T337 690Q499 690 589
614T679 400Q679 284 629 194T483 52T249 0Q209 0 168 -4T95 -8ZM215 82Q311 82 378 121T480 229T516 388Q516 493 461 552T286 611H261L216 166Q215 149 215 127T215 82Z" />
<glyph unicode="&#xd1;" horiz-adv-x="667" d="M71 -12Q55 -12 50 3T45 39Q45 74 49 113T57 191L112 695L207 696Q223 696 237 692T265 664Q313 580 366 497T469 339T551 202L509 172L531 387Q539 464 539 511T534 584T525 626T520 654Q520 664 531 671T559 684T592
691T618 694Q637 694 647 674T657 634Q657 617 654 595T645 524L631 392Q621 298 618 239T614 144T615 87T617 46Q617 35 603 25T568 6T526 -6T488 -11Q473 -11 467 -2T462 23Q463 36 455 56T435 99T414 137Q382 195 337 262T243 402T155 550L194 552L167 293Q160
224 159 180T161 109T168 69T175 47T179 28Q179 17 166 10T135 -3T98 -10T71 -12ZM242 786Q242 810 251 833T278 872T320 887Q337 887 358 879T400 859T439 839T464 830Q474 830 478 839T487 864Q490 875 494 879T507 883Q524 883 536 878T549 855Q549 826 539
801T510 759T468 743Q441 743 415 757T366 785T327 799Q320 799 315 794T304 771Q301 760 297 755T281 750Q269 750 256 757T242 786Z" />
<glyph unicode="&#xd2;" horiz-adv-x="740" d="M339 -16Q250 -16 183 17T78 118T40 283Q40 375 69 451T150 581T272 666T423 696Q563 696 642 621T722 398Q722 305 693 230T612 99T490 14T339 -16ZM352 64Q394 64 430 86T494 151T537 250T553 378Q553 458 535
511T484 590T407 616Q350 616 305 577T235 466T209 302Q209 222 227 169T278 90T352 64ZM537 757L407 899Q402 906 395 909T377 912Q363 912 348 902T322 876T312 842Q312 831 318 826T338 813L490 729Q497 725 502 725T515 724Q526 724 535 730T545 744Q545 747
543 750T537 757Z" />
<glyph unicode="&#xd3;" horiz-adv-x="740" d="M339 -16Q250 -16 183 17T78 118T40 283Q40 375 69 451T150 581T272 666T423 696Q563 696 642 621T722 398Q722 305 693 230T612 99T490 14T339 -16ZM352 64Q394 64 430 86T494 151T537 250T553 378Q553 458 535
511T484 590T407 616Q350 616 305 577T235 466T209 302Q209 222 227 169T278 90T352 64ZM300 759Q292 751 292 745Q292 737 301 732T322 726Q329 726 334 726T347 730L526 809Q539 816 545 822T552 841Q552 858 543 874T520 902T492 913Q478 913 464 901L300 759Z"
/>
<glyph unicode="&#xd4;" horiz-adv-x="740" d="M339 -16Q250 -16 183 17T78 118T40 283Q40 375 69 451T150 581T272 666T423 696Q563 696 642 621T722 398Q722 305 693 230T612 99T490 14T339 -16ZM352 64Q394 64 430 86T494 151T537 250T553 378Q553 458 535
511T484 590T407 616Q350 616 305 577T235 466T209 302Q209 222 227 169T278 90T352 64ZM266 761V761Q259 754 262 748T275 740L322 735Q330 734 336 737T346 745L423 825L487 746Q492 741 499 735T521 730L569 732Q581 733 584 740T583 754L508 868Q495 888 480
894T441 901Q419 901 404 895T379 879L266 761Z" />
<glyph unicode="&#xd5;" horiz-adv-x="740" d="M339 -16Q250 -16 183 17T78 118T40 283Q40 375 69 451T150 581T272 666T423 696Q563 696 642 621T722 398Q722 305 693 230T612 99T490 14T339 -16ZM352 64Q394 64 430 86T494 151T537 250T553 378Q553 458 535
511T484 590T407 616Q350 616 305 577T235 466T209 302Q209 222 227 169T278 90T352 64ZM281 786Q281 810 290 833T317 872T359 887Q376 887 397 879T439 859T478 839T503 830Q513 830 517 839T526 864Q529 875 533 879T546 883Q563 883 575 878T588 855Q588 826
578 801T549 759T507 743Q480 743 454 757T405 785T366 799Q359 799 354 794T343 771Q340 760 336 755T320 750Q308 750 295 757T281 786Z" />
<glyph unicode="&#xd6;" horiz-adv-x="740" d="M339 -16Q250 -16 183 17T78 118T40 283Q40 375 69 451T150 581T272 666T423 696Q563 696 642 621T722 398Q722 305 693 230T612 99T490 14T339 -16ZM352 64Q394 64 430 86T494 151T537 250T553 378Q553 458 535
511T484 590T407 616Q350 616 305 577T235 466T209 302Q209 222 227 169T278 90T352 64ZM520 749Q493 749 474 767T454 815Q454 850 477 870T530 891Q557 891 576 874T596 824Q596 792 573 771T520 749ZM334 749Q307 749 287 767T267 815Q267 850 290 870T343 891Q371
891 390 874T409 824Q409 792 387 771T334 749Z" />
<glyph unicode="&#xd7;" horiz-adv-x="550" d="M154 480L448 170Q466 152 467 133T461 98T446 75Q439 68 432 66T414 75L121 381Q92 411 95 437T114 478Q122 485 133 487T154 480ZM406 484Q416 494 426 494T445 486Q461 471 463 448T436 393L134 84Q121 69 110
74T91 86Q79 97 77 118T100 166L406 484Z" />
<glyph unicode="&#xd8;" horiz-adv-x="737" d="M215 -79Q206 -80 188 -71T164 -46Q157 -25 175 18L499 763Q501 768 505 775T517 782Q531 783 547 770T567 746Q572 733 568 719T554 682L228 -66Q226 -70 223 -74T215 -79ZM339 -16Q250 -16 183 17T78 118T40 283Q40
375 69 451T150 581T272 666T423 696Q563 696 642 621T722 398Q722 305 693 230T612 99T490 14T339 -16ZM352 64Q394 64 430 86T494 151T537 250T553 378Q553 458 535 511T484 590T407 616Q350 616 305 577T235 466T209 302Q209 222 227 169T278 90T352 64Z" />
<glyph unicode="&#xd9;" horiz-adv-x="669" d="M325 -16Q225 -16 164 9T78 88T63 226L112 695H212Q230 695 243 686T257 649Q257 625 255 601T248 545T239 466L217 262Q206 160 235 116T349 71Q388 71 421 86T476 136T505 230L526 424Q532 480 531 517T524 578T515
619T510 649Q510 662 528 672T571 689T614 695Q630 695 639 685T653 659T658 631Q658 614 655 585T648 524L617 238Q606 138 570 83T472 6T325 -16ZM507 757L377 899Q372 906 365 909T347 912Q333 912 318 902T292 876T282 842Q282 831 288 826T308 813L460 729Q467
725 472 725T485 724Q496 724 505 730T515 744Q515 747 513 750T507 757Z" />
<glyph unicode="&#xda;" horiz-adv-x="669" d="M325 -16Q225 -16 164 9T78 88T63 226L112 695H212Q230 695 243 686T257 649Q257 625 255 601T248 545T239 466L217 262Q206 160 235 116T349 71Q388 71 421 86T476 136T505 230L526 424Q532 480 531 517T524 578T515
619T510 649Q510 662 528 672T571 689T614 695Q630 695 639 685T653 659T658 631Q658 614 655 585T648 524L617 238Q606 138 570 83T472 6T325 -16ZM270 759Q262 751 262 745Q262 737 271 732T292 726Q299 726 304 726T317 730L496 809Q509 816 515 822T522 841Q522
858 513 874T490 902T462 913Q448 913 434 901L270 759Z" />
<glyph unicode="&#xdb;" horiz-adv-x="669" d="M325 -16Q225 -16 164 9T78 88T63 226L112 695H212Q230 695 243 686T257 649Q257 625 255 601T248 545T239 466L217 262Q206 160 235 116T349 71Q388 71 421 86T476 136T505 230L526 424Q532 480 531 517T524 578T515
619T510 649Q510 662 528 672T571 689T614 695Q630 695 639 685T653 659T658 631Q658 614 655 585T648 524L617 238Q606 138 570 83T472 6T325 -16ZM236 761V761Q229 754 232 748T245 740L292 735Q300 734 306 737T316 745L393 825L457 746Q462 741 469 735T491
730L539 732Q551 733 554 740T553 754L478 868Q465 888 450 894T411 901Q389 901 374 895T349 879L236 761Z" />
<glyph unicode="&#xdc;" horiz-adv-x="669" d="M325 -16Q225 -16 164 9T78 88T63 226L112 695H212Q230 695 243 686T257 649Q257 625 255 601T248 545T239 466L217 262Q206 160 235 116T349 71Q388 71 421 86T476 136T505 230L526 424Q532 480 531 517T524 578T515
619T510 649Q510 661 528 672T571 689T614 695Q630 695 639 685T653 659T658 631Q658 614 655 585T648 524L617 238Q606 138 570 83T472 6T325 -16ZM490 749Q463 749 444 767T424 815Q424 850 447 870T500 891Q527 891 546 874T566 824Q566 792 543 771T490 749ZM304
749Q277 749 257 767T237 815Q237 850 260 870T313 891Q341 891 360 874T379 824Q379 792 357 771T304 749Z" />
<glyph unicode="&#xdd;" horiz-adv-x="605" d="M258 253L162 469Q140 516 121 546T82 593Q59 613 51 622T42 642Q42 654 62 666T110 686T162 695Q199 695 227 657T287 539L365 348L299 326L406 494Q433 535 438 566T446 616Q448 638 469 653T519 678T576 691T621
695Q641 695 641 678Q641 668 633 653T611 619L353 261L258 253ZM257 -8Q234 -8 225 7T216 56Q216 88 219 113L246 352L389 329L353 -8H257ZM231 759Q223 751 223 745Q223 737 232 732T253 726Q260 726 265 726T278 730L457 809Q470 816 476 822T483 841Q483 858
474 874T451 902T423 913Q409 913 395 901L231 759Z" />
<glyph unicode="&#xde;" horiz-adv-x="579" d="M296 132Q279 132 264 140T238 162T227 186Q227 197 234 201T249 207Q294 216 329 237T385 294T406 379Q406 438 363 461T239 489L232 572H284Q432 572 497 531T562 394Q562 335 535 287T466 204T378 151T296 132ZM105
-8Q85 -8 73 6T56 43T51 87Q51 123 55 156T64 234L112 696H198Q230 696 242 679T255 635Q255 611 253 591T248 542T239 466L189 -8H105Z" />
<glyph unicode="&#xdf;" horiz-adv-x="637" d="M55 -220Q41 -220 33 -210T24 -183Q24 -162 27 -137L101 471Q111 548 149 598T244 672T365 696Q455 696 502 663T550 573Q550 543 530 512T468 453L415 417Q408 413 398 401T387 370Q387 354 398 343T436 319L504
289Q551 268 580 239T609 159Q609 100 580 61T501 3T393 -16Q315 -16 273 8T231 80Q231 102 237 121T256 140Q260 140 265 138T284 127Q313 108 351 90T422 72Q444 72 458 84T472 117Q472 131 463 142T428 169L366 209Q326 235 300 266T273 344Q273 372 286 400T332
455L354 473Q386 500 397 515T409 553Q409 574 397 588T365 609T326 617Q284 617 267 585T244 499L211 208Q204 149 199 89T189 -24Q186 -52 172 -85T137 -150T95 -200T55 -220ZM46 394Q39 394 36 399T35 411L46 441Q54 461 61 468T100 475H151L155 394H46Z" />
<glyph unicode="&#xe0;" horiz-adv-x="555" d="M138 -16Q82 -16 53 30T24 157Q24 230 47 291T109 396T198 465T304 490Q347 490 382 479T443 455L414 331Q388 349 356 367T294 396T245 408Q222 408 203 378T172 299T160 195Q160 147 166 117T188 87Q199 87 227
114T296 209T387 394L422 301Q368 181 319 112T226 13T138 -16ZM388 -10Q360 -10 351 6T342 44Q342 61 346 87T358 145T373 204L395 279L363 305L387 456Q419 461 447 469T495 483T526 489Q542 489 542 472Q542 464 530 428T503 337T482 216L460 -10H388ZM415 552L285
694Q280 701 273 704T255 707Q241 707 226 697T200 671T190 637Q190 626 196 621T216 608L368 524Q375 520 380 520T393 519Q404 519 413 525T423 539Q423 542 421 545T415 552Z" />
<glyph unicode="&#xe1;" horiz-adv-x="555" d="M138 -16Q82 -16 53 30T24 157Q24 230 47 291T109 396T198 465T304 490Q347 490 382 479T443 455L414 331Q388 349 356 367T294 396T245 408Q222 408 203 378T172 299T160 195Q160 147 166 117T188 87Q199 87 227
114T296 209T387 394L422 301Q368 181 319 112T226 13T138 -16ZM388 -10Q360 -10 351 6T342 44Q342 61 346 87T358 145T373 204L395 279L363 305L387 456Q419 461 447 469T495 483T526 489Q542 489 542 472Q542 464 530 428T503 337T482 216L460 -10H388ZM178 554Q170
546 170 540Q170 532 179 527T200 521Q207 521 212 521T225 525L404 604Q417 611 423 617T430 636Q430 653 421 669T398 697T370 708Q356 708 342 696L178 554Z" />
<glyph unicode="&#xe2;" horiz-adv-x="555" d="M138 -16Q82 -16 53 30T24 157Q24 230 47 291T109 396T198 465T304 490Q347 490 382 479T443 455L414 331Q388 349 356 367T294 396T245 408Q222 408 203 378T172 299T160 195Q160 147 166 117T188 87Q199 87 227
114T296 209T387 394L422 301Q368 181 319 112T226 13T138 -16ZM388 -10Q360 -10 351 6T342 44Q342 61 346 87T358 145T373 204L395 279L363 305L387 456Q419 461 447 469T495 483T526 489Q542 489 542 472Q542 464 530 428T503 337T482 216L460 -10H388ZM144 556V556Q137
549 140 543T153 535L200 530Q208 529 214 532T224 540L301 620L365 541Q370 536 377 530T399 525L447 527Q459 528 462 535T461 549L386 663Q373 683 358 689T319 696Q297 696 282 690T257 674L144 556Z" />
<glyph unicode="&#xe3;" horiz-adv-x="555" d="M138 -16Q82 -16 53 30T24 157Q24 230 47 291T109 396T198 465T304 490Q347 490 382 479T443 455L414 331Q388 349 356 367T294 396T245 408Q222 408 203 378T172 299T160 195Q160 147 166 117T188 87Q199 87 227
114T296 209T387 394L422 301Q368 181 319 112T226 13T138 -16ZM388 -10Q360 -10 351 6T342 44Q342 61 346 87T358 145T373 204L395 279L363 305L387 456Q419 461 447 469T495 483T526 489Q542 489 542 472Q542 464 530 428T503 337T482 216L460 -10H388ZM159 581Q159
605 168 628T195 667T237 682Q254 682 275 674T317 654T356 634T381 625Q391 625 395 634T404 659Q407 670 411 674T424 678Q441 678 453 673T466 650Q466 621 456 596T427 554T385 538Q358 538 332 552T283 580T244 594Q237 594 232 589T221 566Q218 555 214 550T198
545Q186 545 173 552T159 581Z" />
<glyph unicode="&#xe4;" horiz-adv-x="555" d="M138 -16Q82 -16 53 30T24 157Q24 230 47 291T109 396T198 465T304 490Q347 490 382 479T443 455L414 331Q388 349 356 367T294 396T245 408Q222 408 203 378T172 299T160 195Q160 147 166 117T188 87Q199 87 227
114T296 209T387 394L422 301Q368 181 319 112T226 13T138 -16ZM388 -10Q360 -10 351 6T342 44Q342 61 346 87T358 145T373 204L395 279L363 305L387 456Q419 461 447 469T495 483T526 489Q542 489 542 472Q542 464 530 428T503 337T482 216L460 -10H388ZM398 544Q371
544 352 562T332 610Q332 645 355 665T408 686Q435 686 454 669T474 619Q474 587 451 566T398 544ZM212 544Q185 544 165 562T145 610Q145 645 168 665T221 686Q249 686 268 669T287 619Q287 587 265 566T212 544Z" />
<glyph unicode="&#xe5;" horiz-adv-x="555" d="M138 -16Q82 -16 53 30T24 157Q24 230 47 291T109 396T198 465T304 490Q347 490 382 479T443 455L414 331Q388 349 356 367T294 396T245 408Q222 408 203 378T172 299T160 195Q160 147 166 117T188 87Q199 87 227
114T296 209T387 394L422 301Q368 181 319 112T226 13T138 -16ZM388 -10Q360 -10 351 6T342 44Q342 61 346 87T358 145T373 204L395 279L363 305L387 456Q419 461 447 469T495 483T526 489Q542 489 542 472Q542 464 530 428T503 337T482 216L460 -10H388ZM306 521Q260
521 233 548T205 613Q205 653 234 682T312 712Q358 712 384 685T411 621Q411 580 382 551T306 521ZM307 577Q323 577 334 588T345 619Q345 637 335 646T311 656Q294 656 283 646T271 615Q271 599 281 588T307 577Z" />
<glyph unicode="&#xe6;" horiz-adv-x="724" d="M140 -16Q74 -16 43 16T11 96Q11 150 38 184T114 237T227 265T368 277L340 200Q259 195 218 186T161 162T146 127Q146 109 156 100T182 91Q212 91 235 112T274 167T298 234T307 296Q307 335 304 361T287 399T244
411Q210 411 184 398T146 380Q141 378 134 376T121 373Q107 373 98 393T88 432Q88 454 110 467T169 486T250 492Q299 492 339 475T403 426T425 349L390 388Q416 436 463 464T577 493Q645 493 679 462T713 376Q713 300 634 250T405 194L392 271Q451 271 494 282T562
314T586 365Q586 386 575 397T542 409Q509 409 485 382T448 309T435 206Q435 177 441 152T464 110T511 94Q550 94 586 108T647 139Q664 150 671 150Q678 150 682 144T686 131Q686 113 670 89T624 40T553 0T462 -16Q385 -16 348 25T308 133L338 152Q335 112 316
81T267 29T204 -4T140 -16Z" />
<glyph unicode="&#xe7;" horiz-adv-x="421" d="M193 -16Q112 -16 66 33T20 174Q20 264 57 336T159 449T306 491Q357 491 390 477T423 427Q423 412 416 393T399 361T377 348Q371 348 364 352T351 362Q341 371 326 383T291 404T253 413Q226 413 206 385T174 309T162
206Q162 145 180 117T235 88Q269 88 295 98T344 124Q353 130 361 134T375 138Q381 138 384 134T388 123Q388 105 374 81T334 35T272 -1T193 -16ZM154 18Q156 27 160 31T171 36L197 41Q205 43 209 39T211 25L184 -83L170 -38Q227 -38 263 -59T300 -119Q300 -148
283 -168T237 -201T175 -218T111 -224Q98 -224 93 -219T88 -206Q88 -190 95 -180T116 -169Q148 -165 173 -156T199 -125Q199 -116 192 -112T160 -104Q147 -102 140 -95T132 -74Q132 -69 133 -63T136 -50L154 18Z" />
<glyph unicode="&#xe8;" horiz-adv-x="455" d="M191 -16Q114 -16 67 32T20 166Q20 237 41 296T101 399T189 467T298 491Q363 491 404 462T446 377Q446 323 407 282T297 212T131 162L118 229Q168 235 210 251T279 295T308 360Q309 385 300 400T269 416Q241 416
217 387T177 309T162 206Q162 148 177 120T235 91Q278 91 315 106T377 138Q385 143 392 147T405 151Q411 151 415 146T419 134Q419 116 404 91T359 42T287 1T191 -16ZM379 552L249 694Q244 701 237 704T219 707Q205 707 190 697T164 671T154 637Q154 626 160 621T180
608L332 524Q339 520 344 520T357 519Q368 519 377 525T387 539Q387 542 385 545T379 552Z" />
<glyph unicode="&#xe9;" horiz-adv-x="455" d="M191 -16Q114 -16 67 32T20 166Q20 237 41 296T101 399T189 467T298 491Q363 491 404 462T446 377Q446 323 407 282T297 212T131 162L118 229Q168 235 210 251T279 295T308 360Q309 385 300 400T269 416Q241 416
217 387T177 309T162 206Q162 148 177 120T235 91Q278 91 315 106T377 138Q385 143 392 147T405 151Q411 151 415 146T419 134Q419 116 404 91T359 42T287 1T191 -16ZM142 554Q134 546 134 540Q134 532 143 527T164 521Q171 521 176 521T189 525L368 604Q381 611
387 617T394 636Q394 653 385 669T362 697T334 708Q320 708 306 696L142 554Z" />
<glyph unicode="&#xea;" horiz-adv-x="455" d="M191 -16Q114 -16 67 32T20 166Q20 237 41 296T101 399T189 467T298 491Q363 491 404 462T446 377Q446 323 407 282T297 212T131 162L118 229Q168 235 210 251T279 295T308 360Q309 385 300 400T269 416Q241 416
217 387T177 309T162 206Q162 148 177 120T235 91Q278 91 315 106T377 138Q385 143 392 147T405 151Q411 151 415 146T419 134Q419 116 404 91T359 42T287 1T191 -16ZM108 556V556Q101 549 104 543T117 535L164 530Q172 529 178 532T188 540L265 620L329 541Q334
536 341 530T363 525L411 527Q423 528 426 535T425 549L350 663Q337 683 322 689T283 696Q261 696 246 690T221 674L108 556Z" />
<glyph unicode="&#xeb;" horiz-adv-x="455" d="M191 -16Q114 -16 67 32T20 166Q20 237 41 296T101 399T189 467T298 491Q363 491 404 462T446 377Q446 323 407 282T297 212T131 162L118 229Q168 235 210 251T279 295T308 360Q309 385 300 400T269 416Q241 416
217 387T177 309T162 206Q162 148 177 120T235 91Q278 91 315 106T377 138Q385 143 392 147T405 151Q411 151 415 146T419 134Q419 116 404 91T359 42T287 1T191 -16ZM341 544Q314 544 295 562T275 610Q275 645 298 665T351 686Q379 686 398 669T417 619Q417 587
395 566T341 544ZM155 544Q128 544 109 562T89 610Q89 645 112 665T165 686Q192 686 211 669T231 619Q231 587 208 566T155 544Z" />
<glyph unicode="&#xec;" horiz-adv-x="261" d="M80 -16Q62 -16 52 9T42 63Q42 91 44 113T50 170L86 491H177Q201 491 209 469T218 419Q218 405 216 390T210 342L191 179Q186 129 181 94T173 33T166 -16H80ZM272 552L142 694Q137 701 130 704T112 707Q98 707 83
697T57 671T47 637Q47 626 53 621T73 608L225 524Q232 520 237 520T250 519Q261 519 270 525T280 539Q280 542 278 545T272 552Z" />
<glyph unicode="&#xed;" horiz-adv-x="261" d="M80 -16Q62 -16 52 9T42 63Q42 91 44 113T50 170L86 491H177Q201 491 209 469T218 419Q218 405 216 390T210 342L191 179Q186 129 181 94T173 33T166 -16H80ZM35 554Q27 546 27 540Q27 532 36 527T57 521Q64 521
69 521T82 525L261 604Q274 611 280 617T287 636Q287 653 278 669T255 697T227 708Q213 708 199 696L35 554Z" />
<glyph unicode="&#xee;" horiz-adv-x="261" d="M80 -16Q62 -16 52 9T42 63Q42 91 44 113T50 170L86 491H177Q201 491 209 469T218 419Q218 405 216 390T210 342L191 179Q186 129 181 94T173 33T166 -16H80ZM1 556V556Q-6 549 -3 543T10 535L57 530Q65 529 71 532T81
540L158 620L222 541Q227 536 234 530T256 525L304 527Q316 528 319 535T318 549L243 663Q230 683 215 689T176 696Q154 696 139 690T114 674L1 556Z" />
<glyph unicode="&#xef;" horiz-adv-x="261" d="M80 -16Q62 -16 52 9T42 63Q42 91 44 113T50 170L86 491H177Q201 491 209 469T218 419Q218 405 216 390T210 342L191 179Q186 129 181 94T173 33T166 -16H80ZM245 544Q219 544 199 562T179 610Q179 645 202 665T255
686Q283 686 302 669T321 619Q321 587 299 566T245 544ZM59 544Q32 544 13 562T-7 610Q-7 645 16 665T69 686Q96 686 115 669T135 619Q135 587 112 566T59 544Z" />
<glyph unicode="&#xf0;" horiz-adv-x="489" d="M208 -15Q150 -15 105 6T34 73T9 190Q9 255 30 309T87 405T165 468T251 491Q279 491 313 485T380 470T439 452L373 352Q341 369 303 387T226 406Q199 406 183 380T161 308T154 201Q154 70 228 70Q260 70 280 93T313
156T330 248T335 360Q335 428 325 476T289 557T214 609T90 642Q79 644 73 647T66 658Q66 668 82 675T123 687T176 692Q257 692 315 665T409 592T462 491T480 382Q480 251 445 163T348 30T208 -15ZM107 491Q95 487 91 492T84 508Q80 522 90 539T137 567L464 666Q476
670 480 666T486 654Q491 635 481 617T431 587L107 491Z" />
<glyph unicode="&#xf1;" horiz-adv-x="565" d="M375 -10Q360 -10 353 3T344 32T341 56Q341 70 343 89T347 130T353 170L370 274Q373 294 377 314T381 350Q381 362 376 368T363 374Q350 374 323 350T265 280T209 171T176 30L141 182Q171 269 209 328T287 422T364
474T430 490Q464 490 484 478T514 445T523 401Q523 375 520 352T512 303L464 -10H375ZM64 -14Q51 -14 44 -10T35 14T39 75L86 491H175Q198 491 209 469T221 419Q221 406 211 379T189 321T169 267L143 185L192 191L176 30Q175 18 160 9T125 -5T87 -12T64 -14ZM179
581Q179 605 188 628T215 667T257 682Q274 682 295 674T337 654T376 634T401 625Q411 625 415 634T424 659Q427 670 431 674T444 678Q461 678 473 673T486 650Q486 621 476 596T447 554T405 538Q378 538 352 552T303 580T264 594Q257 594 252 589T241 566Q238 555
234 550T218 545Q206 545 193 552T179 581Z" />
<glyph unicode="&#xf2;" horiz-adv-x="507" d="M215 -15Q122 -15 72 34T21 178Q21 245 42 302T101 401T188 467T294 491Q386 491 436 442T486 296Q486 230 465 174T407 75T321 9T215 -15ZM234 60Q265 60 289 88T328 168T343 285Q343 348 324 382T272 416Q242 416
217 388T178 309T164 191Q164 127 183 94T234 60ZM399 552L269 694Q264 701 257 704T239 707Q225 707 210 697T184 671T174 637Q174 626 180 621T200 608L352 524Q359 520 364 520T377 519Q388 519 397 525T407 539Q407 542 405 545T399 552Z" />
<glyph unicode="&#xf3;" horiz-adv-x="507" d="M215 -15Q122 -15 72 34T21 178Q21 245 42 302T101 401T188 467T294 491Q386 491 436 442T486 296Q486 230 465 174T407 75T321 9T215 -15ZM234 60Q265 60 289 88T328 168T343 285Q343 348 324 382T272 416Q242 416
217 388T178 309T164 191Q164 127 183 94T234 60ZM162 554Q154 546 154 540Q154 532 163 527T184 521Q191 521 196 521T209 525L388 604Q401 611 407 617T414 636Q414 653 405 669T382 697T354 708Q340 708 326 696L162 554Z" />
<glyph unicode="&#xf4;" horiz-adv-x="507" d="M215 -15Q122 -15 72 34T21 178Q21 245 42 302T101 401T188 467T294 491Q386 491 436 442T486 296Q486 230 465 174T407 75T321 9T215 -15ZM234 60Q265 60 289 88T328 168T343 285Q343 348 324 382T272 416Q242 416
217 388T178 309T164 191Q164 127 183 94T234 60ZM128 556V556Q121 549 124 543T137 535L184 530Q192 529 198 532T208 540L285 620L349 541Q354 536 361 530T383 525L431 527Q443 528 446 535T445 549L370 663Q357 683 342 689T303 696Q281 696 266 690T241 674L128
556Z" />
<glyph unicode="&#xf5;" horiz-adv-x="507" d="M215 -15Q122 -15 72 34T21 178Q21 245 42 302T101 401T188 467T294 491Q386 491 436 442T486 296Q486 230 465 174T407 75T321 9T215 -15ZM234 60Q265 60 289 88T328 168T343 285Q343 348 324 382T272 416Q242 416
217 388T178 309T164 191Q164 127 183 94T234 60ZM143 581Q143 605 152 628T179 667T221 682Q238 682 259 674T301 654T340 634T365 625Q375 625 379 634T388 659Q391 670 395 674T408 678Q425 678 437 673T450 650Q450 621 440 596T411 554T369 538Q342 538 316
552T267 580T228 594Q221 594 216 589T205 566Q202 555 198 550T182 545Q170 545 157 552T143 581Z" />
<glyph unicode="&#xf6;" horiz-adv-x="507" d="M215 -15Q122 -15 72 34T21 178Q21 245 42 302T101 401T188 467T294 491Q386 491 436 442T486 296Q486 230 465 174T407 75T321 9T215 -15ZM234 60Q265 60 289 88T328 168T343 285Q343 348 324 382T272 416Q242 416
217 388T178 309T164 191Q164 127 183 94T234 60ZM382 544Q355 544 336 562T316 610Q316 645 339 665T392 686Q419 686 438 669T458 619Q458 587 435 566T382 544ZM196 544Q169 544 149 562T129 610Q129 645 152 665T205 686Q233 686 252 669T271 619Q271 587 249
566T196 544Z" />
<glyph unicode="&#xf7;" horiz-adv-x="550" d="M519 334Q531 334 534 330T537 317Q537 304 530 288T507 260T462 247L68 239Q56 239 53 245T50 261Q50 271 57 285T81 312T122 324L519 334ZM286 368Q256 368 235 388T213 441Q213 480 238 502T296 524Q327 524 347
506T368 451Q368 416 344 392T286 368ZM276 40Q246 40 225 60T203 113Q203 153 228 174T287 196Q317 196 338 178T359 124Q359 88 335 64T276 40Z" />
<glyph unicode="&#xf8;" horiz-adv-x="489" d="M95 -169Q88 -172 77 -164T61 -146Q54 -124 72 -82L378 613Q382 622 388 623Q394 625 406 617T422 597Q429 576 409 532L105 -157Q102 -166 95 -169ZM215 -15Q122 -15 72 34T21 178Q21 245 42 302T101 401T188 467T294
491Q386 491 436 442T486 296Q486 230 465 174T407 75T321 9T215 -15ZM234 60Q265 60 289 88T328 168T343 285Q343 348 324 382T272 416Q242 416 217 388T178 309T164 191Q164 127 183 94T234 60Z" />
<glyph unicode="&#xf9;" horiz-adv-x="551" d="M132 -13Q93 -13 67 9T40 78Q40 93 40 107T43 140T50 193L88 491H171Q188 491 200 472T213 424Q213 403 210 369T201 294L188 209Q184 181 182 163T180 130Q180 117 183 108T197 98Q210 98 230 119T274 174T317 247T349
324T362 390Q362 413 357 428T352 454Q352 463 366 470T401 481T441 488T470 491Q490 491 501 471T509 414L462 -10H384Q371 -10 362 1T347 27T341 55Q341 78 348 105T369 174T400 282V265Q361 163 316 102T225 14T132 -13ZM414 552L284 694Q279 701 272 704T254
707Q240 707 225 697T199 671T189 637Q189 626 195 621T215 608L367 524Q374 520 379 520T392 519Q403 519 412 525T422 539Q422 542 420 545T414 552Z" />
<glyph unicode="&#xfa;" horiz-adv-x="551" d="M132 -13Q93 -13 67 9T40 78Q40 93 40 107T43 140T50 193L88 491H171Q188 491 200 472T213 424Q213 403 210 369T201 294L188 209Q184 181 182 163T180 130Q180 117 183 108T197 98Q210 98 230 119T274 174T317 247T349
324T362 390Q362 413 357 428T352 454Q352 463 366 470T401 481T441 488T470 491Q490 491 501 471T509 414L462 -10H384Q371 -10 362 1T347 27T341 55Q341 78 348 105T369 174T400 282V265Q361 163 316 102T225 14T132 -13ZM177 554Q169 546 169 540Q169 532 178
527T199 521Q206 521 211 521T224 525L403 604Q416 611 422 617T429 636Q429 653 420 669T397 697T369 708Q355 708 341 696L177 554Z" />
<glyph unicode="&#xfb;" horiz-adv-x="551" d="M132 -13Q93 -13 67 9T40 78Q40 93 40 107T43 140T50 193L88 491H171Q188 491 200 472T213 424Q213 403 210 369T201 294L188 209Q184 181 182 163T180 130Q180 117 183 108T197 98Q210 98 230 119T274 174T317 247T349
324T362 390Q362 413 357 428T352 454Q352 463 366 470T401 481T441 488T470 491Q490 491 501 471T509 414L462 -10H384Q371 -10 362 1T347 27T341 55Q341 78 348 105T369 174T400 282V265Q361 163 316 102T225 14T132 -13ZM143 556V556Q136 549 139 543T152 535L199
530Q207 529 213 532T223 540L300 620L364 541Q369 536 376 530T398 525L446 527Q458 528 461 535T460 549L385 663Q372 683 357 689T318 696Q296 696 281 690T256 674L143 556Z" />
<glyph unicode="&#xfc;" horiz-adv-x="551" d="M132 -13Q93 -13 67 9T40 78Q40 93 40 107T43 140T50 193L88 491H171Q188 491 200 472T213 424Q213 403 210 369T201 294L188 209Q184 181 182 163T180 130Q180 117 183 108T197 98Q210 98 230 119T274 174T317 247T349
324T362 390Q362 413 357 428T352 454Q352 463 366 470T401 481T441 488T470 491Q490 491 501 471T509 414L462 -10H384Q371 -10 362 1T347 27T341 55Q341 78 348 105T369 174T400 282V265Q361 163 316 102T225 14T132 -13ZM397 544Q370 544 351 562T331 610Q331
645 354 665T407 686Q434 686 453 669T473 619Q473 587 450 566T397 544ZM211 544Q184 544 164 562T144 610Q144 645 167 665T220 686Q248 686 267 669T286 619Q286 587 264 566T211 544Z" />
<glyph unicode="&#xfd;" horiz-adv-x="552" d="M178 -221Q122 -221 87 -205T36 -158T19 -83Q19 -67 25 -59T38 -50Q45 -50 51 -56T70 -70Q89 -82 114 -95T167 -119T222 -129Q241 -129 260 -116T298 -65T337 45L395 273H400Q365 175 319 112T222 18T122 -12Q80
-12 60 11T40 75Q40 95 42 119T51 194L88 491H171Q188 491 201 472T215 424Q215 408 214 390T209 348T201 295L188 209Q184 181 182 163T180 130Q180 117 183 108T197 98Q211 98 231 119T273 173T314 244T346 318T358 379Q358 396 357 415T355 447Q355 459 375
469T422 485T472 491Q490 491 500 474T507 419Q507 402 503 374T496 316L465 30Q457 -38 429 -85T360 -163T272 -207T178 -221ZM184 554Q176 546 176 540Q176 532 185 527T206 521Q213 521 218 521T231 525L410 604Q423 611 429 617T436 636Q436 653 427 669T404
697T376 708Q362 708 348 696L184 554Z" />
<glyph unicode="&#xfe;" horiz-adv-x="540" d="M230 -16Q195 -16 157 -5T85 22L127 141Q148 122 176 105T234 77T283 66Q310 66 333 92T369 166T383 279Q383 327 377 355T357 384Q347 384 317 358T244 266T149 80L119 166Q175 293 224 363T317 461T402 490Q464
490 490 443T516 317Q516 220 479 145T377 27T230 -16ZM57 -219Q41 -219 30 -207T15 -176T10 -143Q10 -130 11 -115T13 -80T19 -30L107 696H187Q203 696 215 685T234 660T241 634Q241 615 237 597T225 551L135 191H171L156 56L149 43L144 -219H57Z" />
<glyph unicode="&#xff;" horiz-adv-x="552" d="M178 -221Q122 -221 87 -205T36 -158T19 -83Q19 -67 25 -59T38 -50Q45 -50 51 -56T70 -70Q89 -82 114 -95T167 -119T222 -129Q241 -129 260 -116T298 -65T337 45L395 273H400Q365 175 319 112T222 18T122 -12Q80
-12 60 11T40 75Q40 95 42 119T51 194L88 491H171Q188 491 201 472T215 424Q215 408 214 390T209 348T201 295L188 209Q184 181 182 163T180 130Q180 117 183 108T197 98Q211 98 231 119T273 173T314 244T346 318T358 379Q358 396 357 415T355 447Q355 459 375
469T422 485T472 491Q490 491 500 474T507 419Q507 402 503 374T496 316L465 30Q457 -38 429 -85T360 -163T272 -207T178 -221ZM386 544Q359 544 340 562T320 610Q320 645 343 665T396 686Q424 686 443 669T462 619Q462 587 440 566T386 544ZM200 544Q173 544 154
562T134 610Q134 645 157 665T210 686Q237 686 256 669T276 619Q276 587 253 566T200 544Z" />
<glyph unicode="&#x2013;" horiz-adv-x="596" d="M43 214Q43 225 50 238T69 262T98 272H540Q552 272 552 256Q552 235 537 217T502 198H55Q47 198 45 202T43 214Z" />
<glyph unicode="&#x2014;" horiz-adv-x="703" d="M-10 214Q-10 225 -4 238T15 262T42 272H699Q711 272 711 256Q711 235 695 217T658 198H2Q-6 198 -8 202T-10 214Z" />
<glyph unicode="&#x2018;" horiz-adv-x="235" d="M258 665Q258 659 255 656T245 650Q202 631 183 605T164 545Q164 535 168 526T190 488L126 538Q141 544 157 544Q186 544 210 524T235 467Q235 428 209 405T146 382Q107 382 85 411T62 483Q62 535 79 574T124 640T181
679T235 693Q245 693 251 683T258 665Z" />
<glyph unicode="&#x2019;" horiz-adv-x="235" d="M40 420Q40 427 44 430T54 435Q97 454 116 480T135 540Q135 551 131 560T108 597L173 547Q158 541 142 541Q114 541 89 561T64 618Q64 657 90 680T152 703Q192 703 214 674T237 602Q237 550 219 511T174 445T117
406T64 392Q53 392 47 402T40 420Z" />
<glyph unicode="&#x201a;" horiz-adv-x="219" d="M-23 -142Q-23 -135 -19 -132T-9 -127Q34 -108 53 -82T72 -22Q72 -11 68 -2T45 35L110 -15Q95 -21 79 -21Q51 -21 26 -1T1 56Q1 95 27 118T89 141Q129 141 151 112T174 40Q174 -12 156 -51T111 -117T54 -156T1
-170Q-10 -170 -16 -160T-23 -142Z" />
<glyph unicode="&#x201c;" horiz-adv-x="435" d="M258 665Q258 659 255 656T245 650Q202 631 183 605T164 545Q164 535 168 526T190 488L126 538Q141 544 157 544Q186 544 210 524T235 467Q235 428 209 405T146 382Q107 382 85 411T62 483Q62 535 79 574T124 640T181
679T235 693Q245 693 251 683T258 665ZM459 665Q459 659 455 656T445 650Q402 631 383 605T364 545Q364 535 368 526T391 488L326 538Q341 544 357 544Q386 544 410 524T435 467Q435 428 409 405T347 382Q307 382 285 411T262 483Q262 535 280 574T325 640T382
679T435 693Q446 693 452 683T459 665Z" />
<glyph unicode="&#x201d;" horiz-adv-x="433" d="M40 420Q40 427 44 430T54 435Q97 454 116 480T135 540Q135 551 131 560T108 597L173 547Q158 541 142 541Q114 541 89 561T64 618Q64 657 90 680T152 703Q192 703 214 674T237 602Q237 550 219 511T174 445T117
406T64 392Q53 392 47 402T40 420ZM238 420Q238 427 242 430T252 435Q295 454 314 480T333 540Q333 551 329 560T306 597L371 547Q356 541 340 541Q312 541 287 561T262 618Q262 657 288 680T350 703Q390 703 412 674T435 602Q435 550 417 511T372 445T315 406T262
392Q251 392 245 402T238 420Z" />
<glyph unicode="&#x201e;" horiz-adv-x="417" d="M175 -142Q175 -135 179 -132T189 -127Q232 -108 251 -82T270 -22Q270 -11 266 -2T243 35L308 -15Q293 -21 277 -21Q249 -21 224 -1T199 56Q199 95 225 118T287 141Q327 141 349 112T372 40Q372 -12 354 -51T309
-117T252 -156T199 -170Q188 -170 182 -160T175 -142ZM-23 -142Q-23 -135 -19 -132T-9 -127Q34 -108 53 -82T72 -22Q72 -11 68 -2T45 35L110 -15Q95 -21 79 -21Q51 -21 26 -1T1 56Q1 95 27 118T89 141Q129 141 151 112T174 40Q174 -12 156 -51T111 -117T54 -156T1
-170Q-10 -170 -16 -160T-23 -142Z" />
<glyph unicode="&#x2022;" horiz-adv-x="303" d="M148 144Q97 144 61 178T24 269Q24 335 66 372T165 409Q217 409 252 378T288 286Q288 225 247 185T148 144Z" />
<glyph unicode="&#x2039;" horiz-adv-x="351" d="M320 436V436Q308 436 295 430T271 417L44 268Q34 261 29 255T23 240Q23 231 28 226T37 216L202 74Q219 59 230 53T251 47Q262 47 276 57T301 81T312 104Q312 110 310 115T298 128L150 240L211 283Q262 318 291
341T332 382T344 414Q344 424 338 430T320 436Z" />
<glyph unicode="&#x203a;" horiz-adv-x="351" d="M32 50V50Q44 50 57 56T81 69L308 218Q319 225 324 231T329 246Q329 255 325 260T315 270L150 412Q134 427 123 433T101 439Q90 439 76 429T51 405T40 382Q40 376 43 371T54 358L202 246L141 203Q91 169 62 145T20
104T8 72Q8 62 14 56T32 50Z" />
</font>
</defs>
</svg>
